
<svg xmlns="http://www.w3.org/2000/svg" width="1920" height="1080" viewBox="0 0 1920 1080">
<g transform="rotate(-10 960.0 540.0)">
<path d="M 0 0.0 L 0 -10.460683869214655 L 20 -9.5681014801344 L 40 -8.614315893734519 L 60 -7.605428082874287 L 80 -6.547891486607376 L 100 -5.448470730194968 L 120 -4.31419835458907 L 140 -3.152329832169707 L 160 -1.970297156481771 L 180 -0.775661302838737 L 200 0.4239361361166395 L 220 1.6208218305275486 L 240 2.8073397964481512 L 260 3.975900368013982 L 280 5.1190287454029475 L 300 6.229412808045649 L 320 7.299949887243641 L 340 8.323792199010501 L 360 9.294390646520549 L 380 10.20553671197909 L 400 11.051402169949009 L 420 11.826576368104195 L 440 12.526100836939985 L 460 13.145501007056698 L 480 13.68081483113385 L 500 14.128618127512109 L 520 14.486046483270528 L 540 14.750813576694135 L 560 14.921225801930586 L 580 14.996193102288021 L 600 14.975235942877957 L 620 14.858488378002102 L 640 14.646697193662312 L 660 14.34121713067866 L 680 13.944002218971374 L 700 13.457593278437692 L 720 12.885101666375345 L 740 12.230189375413618 L 760 11.497045609257608 L 780 10.690359986080392 L 800 9.815292540970791 L 820 8.877440719317683 L 840 7.882803572261688 L 860 6.837743383239965 L 880 5.748944971084397 L 900 4.623372929993614 L 920 3.468227079897554 L 940 2.290896412180052 L 960 1.0989118253496948 L 980 -0.10010204701064815 L 1000 -1.2984756078788928 L 1020 -2.488543356041375 L 1040 -3.662692919141285 L 1060 -4.813413746883736 L 1080 -5.933345152927099 L 1100 -7.015323398156481 L 1120 -8.052427514167041 L 1140 -9.038023573843253 L 1160 -9.965807125853464 L 1180 -10.8298435216238 L 1200 -11.624605876836517 L 1220 -12.345010424628361 L 1240 -12.98644903434986 L 1260 -13.544818687875503 L 1280 -14.016547724917976 L 1300 -14.398618689465152 L 1320 -14.688587631201337 L 1340 -14.884599738448921 L 1360 -14.985401202633483 L 1380 -14.990347238379837 L 1400 -14.899406207938076 L 1420 -14.713159823557195 L 1440 -14.432799426511838 L 1460 -14.060118366583742 L 1480 -13.597500530743101 L 1500 -13.04790509440725 L 1520 -12.414847592816475 L 1540 -11.702377433605607 L 1560 -10.915051994414197 L 1580 -10.057907471222155 L 1600 -9.13642666388202 L 1620 -8.156503904910535 L 1640 -7.124407355875578 L 1660 -6.046738912552884 L 1680 -4.930391975322767 L 1700 -3.7825073549320183 L 1720 -2.610427595674171 L 1740 -1.4216500081628447 L 1760 -0.22377871212959494 L 1780 0.9755240039929318 L 1800 2.1685866955681776 L 1820 3.3477778328221577 L 1840 4.505554616590195 L 1860 5.634511226491393 L 1880 6.727426192905527 L 1900 7.777308589734981 L 1920 8.777442752474123 " stroke="rgba(180,180,180,0.2)" fill="none" stroke-width="2"/> 
<path d="M 0 43.2 L 0 67.74834910313392 L 20 67.42050972728492 L 40 67.00550267142944 L 60 66.50482151281471 L 80 65.92026816294097 L 100 65.25394638262588 L 120 64.50825421073745 L 140 63.68587533384351 L 160 62.789769427838316 L 180 61.82316150630521 L 200 60.78953031395042 L 220 59.6925958068787 L 240 58.536305764768386 L 260 57.32482158312767 L 280 56.06250329676455 L 300 54.75389388836976 L 320 53.403702938684944 L 340 52.01678967709773 L 360 50.598145493663225 L 380 49.152875975489934 L 400 47.6861825321395 L 420 46.2033436761691 L 440 44.70969602618648 L 460 43.210615100785624 L 480 41.711495972484904 L 500 40.21773385129177 L 520 38.73470466777302 L 540 37.26774572551 L 560 35.82213649256929 L 580 34.40307960111887 L 600 33.01568212357037 L 620 31.664937192633545 L 640 30.355706031430238 L 660 29.092700458340808 L 680 27.88046592954604 L 700 26.723365180293392 L 720 25.625562523761314 L 740 24.591008864028726 L 760 23.623427477086786 L 780 22.726300611065952 L 800 21.902856953903175 L 820 21.15606001355179 L 840 20.488597452553133 L 860 19.90287141535374 L 880 19.400989883179328 L 900 18.984759087578695 L 920 18.655677009940682 L 940 18.4149279903788 L 960 18.26337846538572 L 980 18.20157384959757 L 1000 18.229736572890214 L 1020 18.347765279871894 L 1040 18.55523519465317 L 1060 18.851399649581474 L 1080 19.23519277243828 L 1100 19.705233322428136 L 1120 20.259829661153965 L 1140 20.896985840688533 L 1160 21.61440878683161 L 1180 22.409516551700893 L 1200 23.279447605956218 L 1220 24.22107113721505 L 1240 25.23099831759623 L 1260 26.305594499840886 L 1280 27.440992298117557 L 1300 28.633105506434912 L 1320 29.877643804570795 L 1340 31.170128198592018 L 1360 32.505907140395735 L 1380 33.88017326825956 L 1400 35.287980708152595 L 1420 36.72426287354078 L 1440 38.18385069962732 L 1460 39.66149124640397 L 1480 41.151866603562716 L 1500 42.64961302922998 L 1520 44.14934025364543 L 1540 45.645650878312146 L 1560 47.133159800803 L 1580 48.60651359531384 L 1600 50.060409779215554 L 1620 51.48961589626565 L 1640 52.88898834780008 L 1660 54.25349090413424 L 1680 55.57821282955121 L 1700 56.858386555647584 L 1720 58.08940483943108 L 1740 59.26683734442028 L 1760 60.38644658507181 L 1780 61.444203177152175 L 1800 62.43630033916992 L 1820 63.35916759267812 L 1840 64.20948361214126 L 1860 64.98418817812032 L 1880 65.68049319075833 L 1900 66.29589270392898 L 1920 66.82817194393657 " stroke="rgba(160,160,160,0.1)" fill="none" stroke-width="2"/> 
<path d="M 0 86.4 L 0 77.66388571266769 L 20 77.97140534335243 L 40 78.30925881301116 L 60 78.67623021399106 L 80 79.07099884553016 L 100 79.49214396685386 L 120 79.9381499103076 L 140 80.40741153612352 L 160 80.89824000919045 L 180 81.40886887703648 L 200 81.93746042715038 L 220 82.48211230076211 L 240 83.0408643392801 L 260 83.6117056387455 L 280 84.19258178691483 L 300 84.78140225692567 L 320 85.37604793093577 L 340 85.97437872665895 L 360 86.57424129935035 L 380 87.1734767915221 L 400 87.76992860249909 L 420 88.36145014985243 L 440 88.94591259477828 L 460 89.5212125036186 L 480 90.08527941795091 L 500 90.63608330600279 L 520 91.17164186857407 L 540 91.69002767317333 L 560 92.18937509069352 L 580 92.66788700966205 L 600 93.1238413039015 L 620 93.55559703032417 L 640 93.96160033455514 L 660 94.34039004313017 L 680 94.69060292214216 L 700 95.0109785834112 L 720 95.30036402052093 L 740 95.5577177583965 L 760 95.78211360149027 L 780 95.97274396708552 L 800 96.12892279172219 L 820 96.25008800028449 L 840 96.33580352886432 L 860 96.38576089412045 L 880 96.39978030348544 L 900 96.37781130222473 L 920 96.31993295501917 L 940 96.2263535614176 L 960 96.09740990618334 L 980 95.93356604723283 L 1000 95.73541164552815 L 1020 95.50365984293433 L 1040 95.23914469567883 L 1060 94.94281817264968 L 1080 94.61574672933553 L 1100 94.25910746973757 L 1120 93.87418391006612 L 1140 93.46236135946847 L 1160 93.0251219344118 L 1180 92.56403922466436 L 1200 92.08077263007168 L 1220 91.57706138850901 L 1240 91.0547183165031 L 1260 90.51562328505034 L 1280 89.96171645411121 L 1300 89.39499129012948 L 1320 88.81748739170574 L 1340 88.23128314924496 L 1360 87.63848826499537 L 1380 87.04123616039865 L 1400 86.44167629807643 L 1420 85.84196644608613 L 1440 85.24426491228603 L 1460 84.65072277675756 L 1480 84.06347615024005 L 1500 83.48463848643873 L 1520 82.91629297587356 L 1540 82.36048504864316 L 1560 81.81921501308497 L 1580 81.29443085682551 L 1600 80.78802123612846 L 1620 80.30180867877154 L 1640 79.83754302491468 L 1660 79.39689512956507 L 1680 78.98145084930327 L 1700 78.5927053349123 L 1720 78.23205765044916 L 1740 77.90080573812517 L 1760 77.60014174711554 L 1780 77.33114774310978 L 1800 77.09479181404362 L 1820 76.89192458602795 L 1840 76.72327616201329 L 1860 76.58945349420767 L 1880 76.49093819970405 L 1900 76.42808482717888 L 1920 76.40111958089975 " stroke="rgba(180,180,180,0.2)" fill="none" stroke-width="2"/> 
<path d="M 0 129.60000000000002 L 0 119.42238266225733 L 20 119.87116205089524 L 40 120.33550550487698 L 60 120.81467017373083 L 80 121.30788949620296 L 100 121.81437442659195 L 120 122.33331469705351 L 140 122.86388011385625 L 160 123.40522188551458 L 180 123.95647398067388 L 200 124.5167545135761 L 220 125.08516715488874 L 240 125.66080256564057 L 260 126.24273985197006 L 280 126.83004803835914 L 300 127.42178755699523 L 320 128.01701175087962 L 340 128.61476838827642 L 360 129.21410118608048 L 380 129.8140513396661 L 400 130.41365905677011 L 420 131.01196509295463 L 440 131.6080122861936 L 460 132.20084708812774 L 480 132.78952108953865 L 500 133.37309253760122 L 520 133.95062784248708 L 540 134.5212030709094 L 560 135.08390542421893 L 580 135.63783469868716 L 600 136.1821047256402 L 620 136.71584478913962 L 640 137.2382010189424 L 660 137.7483377565108 L 680 138.24543889188817 L 700 138.72870916930046 L 720 139.19737545939594 L 740 139.6506879960873 L 760 140.08792157601732 L 780 140.5083767187297 L 800 140.91138078568832 L 820 141.29628905635576 L 840 141.66248575960827 L 860 142.00938505883846 L 880 142.3364319891688 L 900 142.64310334527704 L 920 142.92890851841315 L 940 143.19339028126868 L 960 143.43612551944273 L 980 143.65672590833506 L 1000 143.8548385343823 L 1020 144.03014645964458 L 1040 144.1823692288385 L 1060 144.31126331800579 L 1080 144.41662252409972 L 1100 144.498278294866 L 1120 144.55609999849037 L 1140 144.58999513258166 L 1160 144.5999094721559 L 1180 144.5858271563847 L 1200 144.54777071396924 L 1220 144.48580102709914 L 1240 144.40001723405385 L 1260 144.29055657060272 L 1280 144.15759415045687 L 1300 144.00134268512474 L 1320 143.822052143619 L 1340 143.62000935255946 L 1360 143.39553753731164 L 1380 143.14899580489518 L 1400 142.88077856948917 L 1420 142.59131492145363 L 1440 142.28106794087648 L 1460 141.95053395674412 L 1480 141.60024175292105 L 1500 141.23075172220834 L 1520 140.84265496983483 L 1540 140.4365723678147 L 1560 140.01315356168487 L 1580 139.57307593121067 L 1600 139.11704350672258 L 1620 138.64578584281804 L 1640 138.16005685122974 L 1660 137.66063359472756 L 1680 137.14831504398393 L 1700 136.62392079939124 L 1720 136.08828977987605 L 1740 135.54227888080774 L 1760 134.9867616031487 L 1780 134.42262665603909 L 1800 133.85077653505203 L 1820 133.2721260783928 L 1840 132.6876010033533 L 1860 132.09813642536147 L 1880 131.50467536199648 L 1900 130.9081672243613 L 1920 130.309566298228 " stroke="rgba(200,200,200,0.15)" fill="none" stroke-width="2"/> 
<path d="M 0 172.8 L 0 168.3580443667651 L 20 167.37777122172415 L 40 166.40617248604798 L 60 165.44480251045033 L 80 164.49519928181084 L 100 163.55888196272414 L 120 162.6373484611637 L 140 161.7320730341487 L 160 160.84450392924722 L 180 159.97606106768916 L 200 159.12813377279505 L 220 158.30207854735522 L 240 157.49921690351465 L 260 156.7208332486355 L 280 155.96817283051922 L 300 155.24243974527582 L 320 154.5447950110269 L 340 153.8763547105243 L 360 153.23818820565583 L 380 152.63131642669435 L 400 152.05671023902713 L 420 151.51528888997834 L 440 151.00791853820937 L 460 150.5354108680498 L 480 150.0985217909757 L 500 149.69795023631227 L 520 149.33433703309632 L 540 149.00826388488628 L 560 148.72025243916076 L 580 148.4707634527937 L 600 148.26019605494187 L 620 148.08888710852318 L 640 147.95711067130787 L 660 147.86507755748477 L 680 147.81293500040326 L 700 147.8007664170315 L 720 147.82859127450712 L 740 147.89636505899375 L 760 148.00397934689389 L 780 148.15126197830338 L 800 148.33797733243057 L 820 148.56382670453937 L 840 148.82844878381297 L 860 149.13142023137434 L 880 149.47225635753773 L 900 149.8504118972092 L 920 150.26528188219407 L 940 150.71620260901733 L 960 151.20245270070728 L 980 151.7232542608451 L 1000 152.2777741180329 L 1020 152.8651251587905 L 1040 153.48436774674755 L 1060 154.13451122586136 L 1080 154.8145155052552 L 1100 155.52329272314194 L 1120 156.25970898717063 L 1140 157.02258618841262 L 1160 157.81070388608438 L 1180 158.62280125999243 L 1200 159.45757912757674 L 1220 160.3137020223256 L 1240 161.18980033023726 L 1260 162.08447248091 L 1280 162.99628718975603 L 1300 163.92378574775125 L 1320 164.8654843550587 L 1340 165.8198764947916 L 1360 166.7854353431193 L 1380 167.76061621185926 L 1400 168.7438590196491 L 1420 169.7335907877435 L 1440 170.72822815644514 L 1460 171.72617991814207 L 1480 172.72584956290055 L 1500 173.72563783254046 L 1520 174.7239452791072 L 1540 175.7191748236471 L 1560 176.7097343111933 L 1580 177.69403905787374 L 1600 178.67051438606754 L 1620 179.63759814355328 L 1640 180.59374320261912 L 1660 181.53741993513734 L 1680 182.4671186596428 L 1700 183.38135205650156 L 1720 184.27865754730456 L 1740 185.15759963468162 L 1760 186.01677219879045 L 1780 186.85480074680896 L 1800 187.67034461183013 L 1820 188.4620990976434 L 1840 189.22879756597004 L 1860 189.96921346281437 L 1880 190.68216228068835 L 1900 191.3665034535711 L 1920 192.02114218157095 " stroke="rgba(160,160,160,0.1)" fill="none" stroke-width="2"/> 
<path d="M 0 216.0 L 0 201.13726821492082 L 20 201.28541917759074 L 40 201.4865267413809 L 60 201.73986713623182 L 80 202.0445286102968 L 100 202.3994147112641 L 120 202.80324823240127 L 140 203.25457580912007 L 160 203.75177314951964 L 180 204.2930508800832 L 200 204.87646098549052 L 220 205.49990381936945 L 240 206.16113566075552 L 260 206.85777678906442 L 280 207.58732004851635 L 300 208.3471398711895 L 320 209.1345017262292 L 340 209.94657196120602 L 360 210.7804280002047 L 380 211.6330688619413 L 400 212.5014259600552 L 420 213.38237414670633 L 440 214.2727429597326 L 460 215.16932803289006 L 480 216.06890262811106 L 500 216.96822924827677 L 520 217.86407128871082 L 540 218.7532046854609 L 560 219.6324295184476 L 580 220.49858152772103 L 600 221.34854350137974 L 620 222.17925649416733 L 640 222.98773083637215 L 660 223.7710568934098 L 680 224.52641553736552 L 700 225.25108829281058 L 720 225.942467120378 L 740 226.59806380288813 L 760 227.2155189002433 L 780 227.79261024086458 L 800 228.3272609191096 L 820 228.8175467698901 L 840 229.26170329358845 L 860 229.65813200635085 L 880 230.00540619290297 L 900 230.3022760411843 L 920 230.5476731403221 L 940 230.74071432575644 L 960 230.88070485767926 L 980 230.96714092134727 L 1000 230.999711440271 L 1020 230.9782991957543 L 1040 230.9029812487549 L 1060 230.7740286625485 L 1080 230.59190552719323 L 1100 230.35726728930706 L 1120 230.07095839316747 L 1140 229.73400924162408 L 1160 229.347632487761 L 1180 228.91321867065534 L 1200 228.43233121093803 L 1220 227.90670078416792 L 1240 227.33821909226862 L 1260 226.7289320554445 L 1280 226.08103244907696 L 1300 225.39685201210136 L 1320 224.67885305526468 L 1340 223.92961959946558 L 1360 223.15184807607 L 1380 222.34833762266965 L 1400 221.5219800092096 L 1420 220.67574923073926 L 1440 219.81269080424147 L 1460 218.93591080806036 L 1480 218.04856470337347 L 1500 217.15384597793883 L 1520 216.25497465298773 L 1540 215.35518569462548 L 1560 214.45771737144665 L 1580 213.56579960026525 L 1600 212.68264232190194 L 1620 211.81142394886336 L 1640 210.95527992648957 L 1660 210.11729144873647 L 1680 209.30047436920503 L 1700 208.50776834732503 L 1720 207.74202626875535 L 1740 207.00600397807668 L 1760 206.30235036072682 L 1780 205.63359780987344 L 1800 205.00215311253353 L 1820 204.41028878773915 L 1840 203.86013490792266 L 1860 203.35367143295662 L 1880 202.89272108443595 L 1900 202.47894278584863 L 1920 202.11382569224273 " stroke="rgba(200,200,200,0.15)" fill="none" stroke-width="2"/> 
<path d="M 0 259.20000000000005 L 0 272.0222080339231 L 20 270.7122244442089 L 40 269.3608092782061 L 60 267.97282617115894 L 80 266.55327036341106 L 100 265.10725072293394 L 120 263.6399713589195 L 140 262.15671289260666 L 160 260.6628134527472 L 180 259.16364946410675 L 200 257.6646162981417 L 220 256.1711088554879 L 240 254.68850215014442 L 260 253.22213196522742 L 280 251.77727564991278 L 300 250.3591331266781 L 320 248.97280817719684 L 340 247.62329007423588 L 360 246.3154356256612 L 380 245.0539516951743 L 400 243.8433782626859 L 420 242.68807208529034 L 440 241.59219101764546 L 460 240.5596790481852 L 480 239.59425210502042 L 500 238.69938468261063 L 520 237.87829733733557 L 540 237.13394509697036 L 560 236.46900682577632 L 580 235.88587558348263 L 600 235.38665001285534 L 620 234.9731267868498 L 640 234.64679414252814 L 660 234.40882652501293 L 680 234.26008036075302 L 700 234.20109097531324 L 720 234.23207066678023 L 740 234.35290794171874 L 760 234.56316791642766 L 780 234.86209388205148 L 800 235.2486100279153 L 820 235.7213253132814 L 840 236.2785384735936 L 860 236.91824414319288 L 880 237.63814007246788 L 900 238.4356354134675 L 920 239.30786004415577 L 940 240.25167489775177 L 960 241.26368325998033 L 980 242.34024299357526 L 1000 243.47747964604062 L 1020 244.6713003934958 L 1040 245.91740877042162 L 1060 247.21132013229666 L 1080 248.54837779547483 L 1100 249.92376979621767 L 1120 251.33254620856763 L 1140 252.7696369587362 L 1160 254.2298700718946 L 1180 255.70799028569792 L 1200 257.19867796355476 L 1220 258.69656823957433 L 1240 260.1962703262904 L 1260 261.6923869156747 L 1280 263.1795336036174 L 1300 264.65235826796766 L 1320 266.10556033039364 L 1340 267.53390983274045 L 1360 268.93226625923194 L 1380 270.29559703677654 L 1400 271.6189956467957 L 1420 272.8976992833923 L 1440 274.12710599430875 L 1460 275.3027912429858 L 1480 276.4205238321158 L 1500 277.47628113138427 L 1520 278.466263554595 L 1540 279.38690823407705 L 1560 280.2349018431612 L 1580 281.0071925205781 L 1600 281.70100085386275 L 1620 282.3138298822385 L 1640 282.8434740829791 L 1660 283.288027308909 L 1680 283.64588964847474 L 1700 283.9157731836988 L 1720 284.09670662529356 L 1740 284.188038808254 L 1760 284.18944103534847 L 1780 284.1009082600736 L 1800 283.92275910481635 L 1820 283.65563471415777 L 1840 283.3004964474445 L 1860 282.85862241893335 L 1880 282.33160289796024 L 1900 281.721334585688 L 1920 281.0300137890301 " stroke="rgba(160,160,160,0.1)" fill="none" stroke-width="2"/> 
<path d="M 0 302.40000000000003 L 0 323.3837415314161 L 20 322.23060486877426 L 40 320.9506200089984 L 60 319.5519744871079 L 80 318.04361486141795 L 100 316.43518948609693 L 120 314.7369867946261 L 140 312.9598694889354 L 160 311.11520505518143 L 180 309.2147930506287 L 200 307.2707896267505 L 220 305.2956297713433 L 240 303.30194776704076 L 260 301.30249637502084 L 280 299.3100652608542 L 300 297.3373991842906 L 320 295.39711647628945 L 340 293.5016283247631 L 360 291.66305938532844 L 380 289.89317022488785 L 400 288.20328209413526 L 420 286.60420451018626 L 440 285.1061661125576 L 460 283.7187492347805 L 480 282.4508286101665 L 500 281.3105146038007 L 520 280.30510133388225 L 540 279.44102001426 L 560 278.72379781661107 L 580 278.15802251540424 L 600 277.7473131417995 L 620 277.4942968341989 L 640 277.4005920335263 L 660 277.4667981307286 L 680 277.6924916327188 L 700 278.07622887128724 L 720 278.6155552376506 L 740 279.3070208835722 L 760 280.1462027886175 L 780 281.12773305239057 L 800 282.2453332307788 L 820 283.49185449656864 L 840 284.859323367544 L 860 286.33899270956215 L 880 287.9213976883615 L 900 289.5964163122012 L 920 291.35333417806606 L 940 293.1809130072816 L 960 295.067462532146 L 980 297.0009152737489 L 1000 298.968903732655 L 1020 300.958839498695 L 1040 302.95799377383145 L 1060 304.9535787930279 L 1080 306.9328296223053 L 1100 308.8830858107581 L 1120 310.7918723742346 L 1140 312.6469795926636 L 1160 314.4365411105959 L 1180 316.14910984138356 L 1200 317.77373118947065 L 1220 319.30001312242075 L 1240 320.71819264446066 L 1260 322.0191982463362 L 1280 323.1947079320139 L 1300 324.23720245105596 L 1320 325.1400133961627 L 1340 325.8973658582229 L 1360 326.50441536602426 L 1380 326.95727887433725 L 1400 327.25305960215303 L 1420 327.38986556219635 L 1440 327.3668216631878 L 1460 327.1840753074413 L 1480 326.84279544799233 L 1500 326.34516511128805 L 1520 325.6943674332674 L 1540 324.8945652981542 L 1560 323.9508747102042 L 1580 322.8693320687368 L 1600 321.6568555557793 L 1620 320.32120088331106 L 1640 318.8709116831736 L 1660 317.31526485698333 L 1680 315.66421123561935 L 1700 313.9283119278642 L 1720 312.1186707653483 L 1740 310.246863275921 L 1760 308.32486263977455 L 1780 306.36496310195076 L 1800 304.3797013311284 L 1820 302.38177622772594 L 1840 300.3839676942755 L 1860 298.39905488765925 L 1880 296.43973447611575 L 1900 294.5185394238918 L 1920 292.6477588230413 " stroke="rgba(200,200,200,0.15)" fill="none" stroke-width="2"/> 
<path d="M 0 345.6 L 0 360.34251399867014 L 20 360.5165158312164 L 40 360.59510286662294 L 60 360.57777241604964 L 80 360.46463533523826 L 100 360.2564153154138 L 120 359.95444425413035 L 140 359.56065373567213 L 160 359.0775626755057 L 180 358.508261207817 L 200 357.85639091919813 L 220 357.12612155492025 L 240 356.32212434679366 L 260 355.4495421332253 L 280 354.51395646260335 L 300 353.5213518904353 L 320 352.47807769861544 L 340 351.3908072816884 L 360 350.26649545989784 L 380 349.1123339920708 L 400 347.9357055729038 L 420 346.7441366089114 L 440 345.54524907510853 L 460 344.34671176038165 L 480 343.1561912134103 L 500 341.98130270291847 L 520 340.82956150594265 L 540 339.70833483570533 L 560 338.62479471659213 L 580 337.58587210767064 L 600 336.59821256820527 L 620 335.66813374875636 L 640 334.8015849797767 L 660 334.00410921619874 L 680 333.2808075814395 L 700 332.63630673761844 L 720 332.07472929070906 L 740 331.5996674199295 L 760 331.2141599000541 L 780 330.920672663625 L 800 330.7210830273994 L 820 330.61666768392837 L 840 330.6080945350819 L 860 330.69541841975575 L 880 330.87808076309 L 900 331.1549131494417 L 920 331.524144796258 L 940 331.983413881041 L 960 332.5297826489522 L 980 333.15975620441793 L 1000 333.8693048665342 L 1020 334.653889945273 L 1040 335.5084927736096 L 1060 336.4276468098646 L 1080 337.40547260491593 L 1100 338.4357154106087 L 1120 339.5117851887984 L 1140 340.6267987651061 L 1160 341.7736238577445 L 1180 342.94492469978206 L 1200 344.1332089630171 L 1220 345.3308756833101 L 1240 346.5302638808149 L 1260 347.72370156410585 L 1280 348.9035548047416 L 1300 350.0622765683554 L 1320 351.1924549899202 L 1340 352.2868607843906 L 1360 353.3384934894571 L 1380 354.3406262446145 L 1400 355.2868488201133 L 1420 356.1711086205544 L 1440 356.98774940084456 L 1460 357.73154744686263 L 1480 358.3977449894031 L 1500 358.98208063766305 L 1520 359.4808166376004 L 1540 359.8907627808047 L 1560 360.2092968109438 L 1580 360.4343811972557 L 1600 360.5645761677921 L 1620 360.5990489190457 L 1640 360.5375789430503 L 1660 360.3805594378795 L 1680 360.12899479252087 L 1700 359.7844941622139 L 1720 359.3492611753478 L 1740 358.8260798377602 L 1760 358.2182967246003 L 1780 357.5297995736684 L 1800 356.7649924171616 L 1820 355.92876741089657 L 1840 355.02647354120757 L 1860 354.06388240968784 L 1880 353.0471513146356 L 1900 351.9827838653572 L 1920 350.8775883812622 " stroke="rgba(160,160,160,0.1)" fill="none" stroke-width="2"/> 
<path d="M 0 388.8 L 0 381.3410840223284 L 20 381.61340626092993 L 40 381.89722551645576 L 60 382.19208773864193 L 80 382.4975212108335 L 100 382.8130373046306 L 120 383.1381312615897 L 140 383.47228300072936 L 160 383.8149579505489 L 180 384.1656079042286 L 200 384.5236718966439 L 220 384.8885771017899 L 240 385.2597397491807 L 260 385.63656605775753 L 280 386.01845318581206 L 300 386.4047901954043 L 320 386.79495902973304 L 340 387.1883355018949 L 360 387.58429029345035 L 380 387.9821899611987 L 400 388.3813979505523 L 420 388.781275613888 L 440 389.1811832322472 L 460 389.5804810387495 L 480 389.97853024208354 L 500 390.37469404843665 L 520 390.768338680229 L 540 391.15883439002295 L 560 391.545556467984 L 580 391.9278862412837 L 600 392.30521206384424 L 620 392.67693029484127 L 640 393.0424462644009 L 660 393.40117522494444 L 680 393.7525432866598 L 700 394.09598833560267 L 720 394.4309609329592 L 740 394.75692519403054 L 760 395.0733596455344 L 780 395.37975805985076 L 800 395.67563026487824 L 820 395.9605029282048 L 840 396.23392031433866 L 860 396.49544501378807 L 880 396.7446586428228 L 900 396.9811625127991 L 920 397.2045782679765 L 940 397.4145484908063 L 960 397.61073727372303 L 980 397.7928307565256 L 1000 397.9605376284859 L 1020 398.11358959438445 L 1040 398.25174180372517 L 1060 398.37477324244395 L 1080 398.4824870864842 L 1100 398.5747110166731 L 1120 398.65129749439586 L 1140 398.7121239976256 L 1160 398.7570932169328 L 1180 398.78613321115955 L 1200 398.79919752250987 L 1220 398.7962652508726 L 1240 398.77734108725673 L 1260 398.74245530628724 L 1280 398.69166371777163 L 1300 398.6250475774167 L 1320 398.5427134568362 L 1340 398.4447930730595 L 1360 398.331443077812 L 1380 398.2028448069061 L 1400 398.0592039901424 L 1420 397.900750422186 L 1440 397.7277375949439 L 1460 397.54044229203237 L 1480 397.33916414598184 L 1500 397.124225158889 L 1520 396.8959691872818 L 1540 396.65476139202303 L 1560 396.40098765413006 L 1580 396.13505395744806 L 1600 395.85738573916217 L 1620 395.56842720918894 L 1640 395.2686406395352 L 1660 394.9585056247612 L 1680 394.6385183147321 L 1700 394.3091906208835 L 1720 393.9710493972729 L 1740 393.624635597725 L 1760 393.2705034104214 L 1780 392.9092193713177 L 1800 392.5413614578066 L 1820 392.16751816407753 L 1840 391.7882875596515 L 1860 391.4042763325974 L 1880 391.0160988189605 L 1900 390.6243760199557 L 1920 390.2297346084985 " stroke="rgba(180,180,180,0.2)" fill="none" stroke-width="2"/> 
<path d="M 0 432.0 L 0 445.1288269638752 L 20 444.5070621965754 L 40 443.8052949128835 L 60 443.0280140285604 L 80 442.180191488713 L 100 441.26725046431255 L 120 440.29503066240807 L 140 439.2697509719292 L 160 438.1979696840203 L 180 437.08654254135746 L 200 435.94257888479166 L 220 434.77339617782854 L 240 433.5864731998336 L 260 432.3894022073665 L 280 431.1898403696483 L 300 429.9954607888094 L 320 428.813903418221 L 340 427.65272619286617 L 360 426.5193566843476 L 380 425.4210445897771 L 400 424.3648153584544 L 420 423.35742525296644 L 440 422.4053181321636 L 460 421.51458423245333 L 480 420.6909212110706 L 500 419.9395977005155 L 520 419.26541960728497 L 540 418.6726993704721 L 560 418.1652283768723 L 580 417.74625270904636 L 600 417.4184523814698 L 620 417.1839241975861 L 640 417.04416833741993 L 660 417.00007876154484 L 680 417.051937492786 L 700 417.1994128122369 L 720 417.44156138112817 L 740 417.7768342749763 L 760 418.20308689141467 L 780 418.7175926683301 L 800 419.3170605245553 L 820 419.99765591155773 L 840 420.7550253414638 L 860 421.5843242345251 L 880 422.4802479078958 L 900 423.43706550750005 L 920 424.4486566659412 L 940 425.5085506519665 L 960 426.6099677610652 L 980 427.7458626824408 L 1000 428.90896956495754 L 1020 430.0918484937918 L 1040 431.28693308049805 L 1060 432.48657886207315 L 1080 433.68311219943257 L 1100 434.86887936251316 L 1120 436.0362954880264 L 1140 437.17789309669934 L 1160 438.2863698596585 L 1180 439.3546353084147 L 1200 440.3758561896639 L 1220 441.34350017479 L 1240 442.2513776444751 L 1260 443.0936812811406 L 1280 443.8650232159617 L 1300 444.560469492841 L 1320 445.1755716288901 L 1340 445.70639506953904 L 1360 446.1495443562586 L 1380 446.50218484590727 L 1400 446.76206084277413 L 1420 446.9275100273334 L 1440 446.99747408941664 L 1460 446.9715054977863 L 1480 446.8497703628082 L 1500 446.63304737391223 L 1520 446.32272281863743 L 1540 445.9207817151222 L 1560 445.42979511476284 L 1580 444.85290365625815 L 1600 444.1937974762397 L 1620 443.4566926049905 L 1640 442.64630399823864 L 1660 441.7678153775308 L 1680 440.8268460721046 L 1700 439.8294150743582 L 1720 438.7819025388388 L 1740 437.6910089710269 L 1760 436.5637123669675 L 1780 435.4072235779082 L 1800 434.22894018545935 L 1820 433.03639918231653 L 1840 431.8372287612281 L 1860 430.6390995205939 L 1880 429.44967539881173 L 1900 428.2765646512261 L 1920 427.1272711832577 " stroke="rgba(180,180,180,0.2)" fill="none" stroke-width="2"/> 
<path d="M 0 475.20000000000005 L 0 489.130983220017 L 20 487.42749483152147 L 40 485.6457922037172 L 60 483.7972721531742 L 80 481.893758899947 L 100 479.94742843291675 L 120 477.97073062501505 L 140 475.97630959652304 L 160 473.9769228358515 L 180 471.98535959515095 L 200 470.01435908274277 L 220 468.07652897565964 L 240 466.1842647735378 L 260 464.34967050972006 L 280 462.5844813267488 L 300 460.8999884115013 L 320 459.30696677012565 L 340 457.81560630477276 L 360 456.4354466329964 L 380 455.17531606675567 L 400 454.0432751413464 L 420 453.04656505548246 L 440 452.19156135233527 L 460 451.48373313781485 L 480 450.9276080969559 L 500 450.5267435321847 L 520 450.28370360872316 L 540 450.2000429526823 L 560 450.2762967067598 L 580 450.5119771071536 L 600 450.9055766035854 L 620 451.4545775024777 L 640 452.1554680716009 L 660 453.00376500317554 L 680 453.99404209174196 L 700 455.11996494335824 L 720 456.3743314941041 L 740 457.7491180787128 L 760 459.2355307546467 L 780 460.82406155331944 L 800 462.50454929864804 L 820 464.2662446039038 L 840 466.0978786311035 L 860 467.98773517311724 L 880 469.9237255974102 L 900 471.8934661720381 L 920 473.88435727927026 L 940 475.8836640101459 L 960 477.87859762443196 L 980 479.85639735491793 L 1000 481.80441203277843 L 1020 483.7101810118803 L 1040 485.5615138743944 L 1060 487.3465684078689 L 1080 489.05392635497606 L 1100 490.67266645139296 L 1120 492.1924342846236 L 1140 493.6035085269029 L 1160 494.8968631185196 L 1180 496.064225003796 L 1200 497.0981270504118 L 1220 497.9919558135679 L 1240 498.7399938394651 L 1260 499.337456237496 L 1280 499.78052128721646 L 1300 500.0663548843145 L 1320 500.19312866920586 L 1340 500.16003172229614 L 1360 499.9672757510987 L 1380 499.6160937360293 L 1400 499.1087320435386 L 1420 498.4484360570336 L 1440 497.63942941749815 L 1460 496.68688700660516 L 1480 495.59690184513306 L 1500 494.3764461184262 L 1520 493.03332657820187 L 1540 491.57613460598077 L 1560 490.0141912575641 L 1580 488.35748764008576 L 1600 486.61662100302215 L 1620 484.80272695195976 L 1640 482.9274082187212 L 1660 481.00266044347654 L 1680 479.04079544358314 L 1700 477.05436245996935 L 1720 475.0560678848189 L 1740 473.05869398402206 L 1760 471.0750171342954 L 1780 469.11772609797106 L 1800 467.19934085821995 L 1820 465.33213253388493 L 1840 463.5280448861969 L 1860 461.7986179194619 L 1880 460.1549140644157 L 1900 458.6074474164182 L 1920 457.16611648112377 " stroke="rgba(200,200,200,0.15)" fill="none" stroke-width="2"/> 
<path d="M 0 518.4000000000001 L 0 519.7860668028309 L 20 518.9902005732246 L 40 518.1905590740712 L 60 517.3922572821047 L 80 516.6004016045044 L 100 515.8200572153165 L 120 515.0562156556243 L 140 514.3137629047202 L 160 513.5974481265117 L 180 512.9118532910799 L 200 512.2613638657069 L 220 511.65014076285166 L 240 511.0820937245091 L 260 510.5608563132044 L 280 510.08976266959235 L 300 509.6718261853355 L 320 509.30972022768077 L 340 509.00576103903256 L 360 508.76189292090544 L 380 508.57967579702984 L 400 508.46027523516335 L 420 508.4044549914351 L 440 508.41257212491234 L 460 508.4845747136415 L 480 508.62000218677105 L 500 508.81798827063346 L 520 509.07726652994046 L 540 509.3961784686467 L 560 509.7726841386651 L 580 510.2043751885728 L 600 510.6884902688414 L 620 511.2219326950509 L 640 511.801290256102 L 660 512.4228570407226 L 680 513.0826571426533 L 700 513.7764700928788 L 720 514.4998578562275 L 740 515.248193219651 L 760 516.0166893905962 L 780 516.8004306161433 L 800 517.5944036270483 L 820 518.3935297055579 L 840 519.1926971718713 L 860 519.9867940814471 L 880 520.7707409240036 L 900 521.5395231150493 L 920 522.2882230721118 L 940 523.0120516704831 L 960 523.706378877275 L 980 524.3667633678288 L 1000 524.9889809350364 L 1020 525.5690515098505 L 1040 526.1032646201445 L 1060 526.5882031250707 L 1080 527.0207650731012 L 1100 527.398183543932 L 1120 527.71804434733 L 1140 527.978301465712 L 1160 528.1772901416751 L 1180 528.3137375267631 L 1200 528.3867708233524 L 1220 528.3959228675789 L 1240 528.3411351175914 L 1260 528.2227580280212 L 1280 528.0415488082671 L 1300 527.7986665789401 L 1320 527.4956649574467 L 1340 527.1344821201395 L 1360 526.7174284046029 L 1380 526.2471715313766 L 1400 525.7267195396481 L 1420 525.1594015460673 L 1440 524.548846449761 L 1460 523.8989597197616 L 1480 523.2138984133346 L 1500 522.4980445849972 L 1520 521.7559772563242 L 1540 520.9924431258363 L 1560 520.212326206328 L 1580 519.4206165838532 L 1600 518.6223784982031 L 1620 517.8227179490547 L 1640 517.0267500349964 L 1660 516.2395662343544 L 1680 515.4662018371047 L 1700 514.7116037362026 L 1720 513.9805987843484 L 1740 513.2778629186026 L 1760 512.607891250346 L 1780 511.9749693119064 L 1800 511.3831456437773 L 1820 510.8362058977741 L 1840 510.33764862178174 L 1860 509.8906628809874 L 1880 509.4981078587464 L 1900 509.16249456756555 L 1920 508.88596978719295 " stroke="rgba(200,200,200,0.15)" fill="none" stroke-width="2"/> 
<path d="M 0 561.6 L 0 578.1466336802928 L 20 577.4432065907321 L 40 576.6827610660548 L 60 575.868033888967 L 80 575.0019571975066 L 100 574.0876479325121 L 120 573.128396620002 L 140 572.1276555288343 L 160 571.0890262462666 L 180 570.0162467161308 L 200 568.9131777862727 L 220 567.7837893136684 L 240 566.632145877226 L 260 565.4623921496909 L 280 564.2787379813001 L 300 563.0854432488663 L 320 561.8868025248229 L 340 560.6871296213995 L 360 559.4907420655576 L 380 558.3019455605544 L 400 557.1250184900617 L 420 555.9641965206048 L 440 554.8236573577362 L 460 553.7075057108079 L 480 552.6197585204497 L 500 551.5643305019208 L 520 550.5450200563625 L 540 549.5654956006556 L 560 548.6292823650812 L 580 547.7397497062983 L 600 546.9000989812986 L 620 546.1133520259781 L 640 545.3823402797912 L 660 544.7096945956262 L 680 544.097835771576 L 700 543.5489658386788 L 720 543.0650601359848 L 740 542.6478602014682 L 760 542.2988675043714 L 780 542.0193380415369 L 800 541.8102778171756 L 820 541.672439222337 L 840 541.6063183271148 L 860 541.6121530953297 L 880 541.6899225281172 L 900 541.8393467394999 L 920 542.0598879636757 L 940 542.3507524903935 L 960 542.7108935214532 L 980 543.1390149380484 L 1000 543.6335759653953 L 1020 544.1927967178569 L 1040 544.8146646046107 L 1060 545.4969415728008 L 1080 546.2371721621126 L 1100 547.0326923417776 L 1120 547.8806390982078 L 1140 548.7779607387524 L 1160 549.721427874497 L 1180 550.7076450425747 L 1200 551.7330629261673 L 1220 552.7939911282124 L 1240 553.8866114528475 L 1260 555.0069916467924 L 1280 556.1510995512142 L 1300 557.3148176131452 L 1320 558.4939577042273 L 1340 559.684276193451 L 1360 560.8814892196448 L 1380 562.0812881087494 L 1400 563.2793548803912 L 1420 564.4713777879493 L 1440 565.6530668361867 L 1460 566.8201692206007 L 1480 567.9684846329269 L 1500 569.0938803777126 L 1520 570.1923062455581 L 1540 571.259809089497 L 1560 572.2925470520556 L 1580 573.2868033917921 L 1600 574.2389998595512 L 1620 575.1457095762978 L 1640 576.0036693661807 L 1660 576.8097915004417 L 1680 577.5611748099049 L 1700 578.2551151260527 L 1720 578.8891150131128 L 1740 579.4608927561293 L 1760 579.9683905726733 L 1780 580.4097820186371 L 1800 580.7834785614608 L 1820 581.088135297134 L 1840 581.3226557903984 L 1860 581.4861960207295 L 1880 581.5781674199006 L 1900 581.5982389901919 L 1920 581.546338495625 " stroke="rgba(180,180,180,0.2)" fill="none" stroke-width="2"/> 
<path d="M 0 604.8000000000001 L 0 592.5984286485862 L 20 591.9402153267312 L 40 591.3642607414165 L 60 590.8742490364826 L 80 590.4733146146245 L 100 590.1640220879112 L 120 589.9483498730204 L 140 589.8276775361234 L 160 589.8027769683689 L 180 589.873807448415 L 200 590.0403146235884 L 220 590.3012334161913 L 240 590.6548948363636 L 260 591.0990366579232 L 280 591.6308178888929 L 300 592.2468369441538 L 320 592.943153403982 L 340 593.7153132192881 L 360 594.5583772023305 L 380 595.4669526206623 L 400 596.4352276922156 L 420 597.4570087608728 L 440 598.5257599147301 L 460 599.6346447936286 L 480 600.7765703185295 L 500 601.9442320630147 L 520 603.130160976688 L 540 604.326771161609 L 560 605.5264083961526 L 580 606.7213990959059 L 600 607.904099398422 L 620 609.066944057854 L 640 610.2024948367115 L 660 611.3034880851961 L 680 612.3628812037731 L 700 613.3738976917739 L 720 614.3300704938756 L 740 615.2252833671848 L 760 616.0538100043209 L 780 616.8103506622401 L 800 617.4900660625067 L 820 618.0886083461592 L 840 618.6021488851705 L 860 619.0274027726026 L 880 619.3616498347991 L 900 619.6027520312155 L 920 619.7491671305812 L 940 619.7999585759172 L 960 619.7548014753046 L 980 619.613984680084 L 1000 619.3784089371924 L 1020 619.0495811274576 L 1040 618.6296046267022 L 1060 618.1211658513172 L 1080 617.5275170743641 L 1100 616.8524556221265 L 1120 616.1002995841806 L 1140 615.2758601923573 L 1160 614.3844110452784 L 1180 613.431654375321 L 1200 612.4236845737906 L 1220 611.3669492076139 L 1240 610.2682077769135 L 1260 609.1344884772756 L 1280 607.973043243281 L 1300 606.7913013608736 L 1320 605.5968219452819 L 1340 604.3972455884793 L 1360 603.2002454854685 L 1380 602.0134783520201 L 1400 600.8445354478205 L 1420 599.7008940183156 L 1440 598.5898694658579 L 1460 597.5185685560946 L 1480 596.4938439589212 L 1500 595.522250414779 L 1520 594.6100028066855 L 1540 593.7629364061914 L 1560 592.9864695475567 L 1580 592.2855689689015 L 1600 591.6647180420326 L 1620 591.1278880941627 L 1640 590.6785130049694 L 1660 590.3194672414838 L 1680 590.0530474713107 L 1700 589.8809578717938 L 1720 589.8042992290962 L 1740 589.8235618969252 L 1760 589.9386226599428 L 1780 590.1487455219226 L 1800 590.4525864136144 L 1820 590.8482017902002 L 1840 591.3330610633491 L 1860 591.9040627883462 L 1880 592.557554502755 L 1900 593.2893560897124 L 1920 594.0947865164121 " stroke="rgba(200,200,200,0.15)" fill="none" stroke-width="2"/> 
<path d="M 0 648.0 L 0 657.4416717547037 L 20 657.6747668669902 L 40 657.8459764874881 L 60 657.954205458897 L 80 657.9987614851427 L 100 657.9793595597092 L 120 657.8961237887085 L 140 657.7495865970237 L 160 657.5406853226083 L 180 657.270756220721 L 200 656.9415259164523 L 220 656.5551003602164 L 240 656.1139513568555 L 260 655.6209007545237 L 280 655.0791023944887 L 300 654.4920219373109 L 320 653.8634146944424 L 340 653.1973016070492 L 360 652.4979435257095 L 380 651.7698139555109 L 400 651.017570440884 L 420 650.2460247732121 L 440 649.4601122117874 L 460 648.664859914994 L 480 647.8653547836491 L 500 647.0667109221978 L 520 646.2740369258972 L 540 645.4924032032402 L 560 644.7268095426446 L 580 643.9821531308692 L 600 643.2631972277309 L 620 642.5745406974971 L 640 641.9205885918485 L 660 641.305523972581 L 680 640.7332811542849 L 700 640.2075205381585 L 720 639.7316051979318 L 740 639.3085793676709 L 760 638.9411489690692 L 780 638.6316643027831 L 800 638.3821050145276 L 820 638.1940674321004 L 840 638.068754354331 L 860 638.0069673572727 L 880 638.0091016668525 L 900 638.0751436307725 L 920 638.2046708058385 L 940 638.3968546601556 L 960 638.6504658729035 L 980 638.9638821977957 L 1000 639.335098839919 L 1020 639.7617412795798 L 1040 640.2410804611264 L 1060 640.7700502495925 L 1080 641.3452670434966 L 1100 641.9630514183458 L 1120 642.6194516623952 L 1140 643.310269054118 L 1160 644.0310847196939 L 1180 644.7772878987228 L 1200 645.5441054373555 L 1220 646.3266323201906 L 1240 647.1198630456331 L 1260 647.9187236440237 L 1280 648.7181041337283 L 1300 649.5128912075829 L 1320 650.2980009406095 L 1340 651.0684113097864 L 1360 651.8191943178571 L 1380 652.545547515696 L 1400 653.2428247215937 L 1420 653.9065657409643 L 1440 654.53252489637 L 1460 655.1166981853675 L 1480 655.6553488924602 L 1500 656.145031491325 L 1520 656.5826136844223 L 1540 656.9652964390118 L 1560 657.2906318914092 L 1580 657.5565390049607 L 1600 657.7613168815755 L 1620 657.9036556416693 L 1640 657.9826448029236 L 1660 657.9977791042651 L 1680 657.9489617378126 L 1700 657.8365049681171 L 1720 657.6611281347341 L 1740 657.4239530509052 L 1760 657.126496827782 L 1780 656.770662170092 L 1800 656.3587252053211 L 1820 655.8933209242655 L 1840 655.377426326083 L 1860 654.8143413756572 L 1880 654.2076678950843 L 1900 653.5612865243029 L 1920 652.8793318982415 " stroke="rgba(200,200,200,0.15)" fill="none" stroke-width="2"/> 
<path d="M 0 691.2 L 0 706.0059393556845 L 20 706.1507826916775 L 40 706.1999920395631 L 60 706.1532526274469 L 80 706.0108634280633 L 100 705.7737352463703 L 120 705.4433848935057 L 140 705.0219254843726 L 160 704.5120529209148 L 180 703.9170286475447 L 200 703.2406587890289 L 220 702.4872698042786 L 240 701.6616808117769 L 260 700.7691727636667 L 280 699.8154546656781 L 300 698.8066270589749 L 320 697.7491429975096 L 340 696.6497667704998 L 360 695.5155306340616 L 380 694.3536898287678 L 400 693.1716761708683 L 420 691.9770505140277 L 440 690.777454385664 L 460 689.5805611072506 L 480 688.3940267112453 L 500 687.2254409686087 L 520 686.0822788401721 L 540 684.9718526623964 L 560 683.9012653733731 L 580 682.8773650782601 L 600 681.9067012447789 L 620 680.9954828089709 L 640 680.1495384591968 L 660 679.3742793524208 L 680 678.6746645012731 L 700 678.0551690532918 L 720 677.5197556652504 L 740 677.0718491556779 L 760 676.7143145977075 L 780 676.4494389923859 L 800 676.2789166396713 L 820 676.2038383006955 L 840 676.2246842206152 L 860 676.341321056682 L 880 676.5530027311804 L 900 676.8583752037796 L 920 677.2554851327708 L 940 677.7417923697876 L 960 678.314186208088 L 980 678.969005280461 L 1000 679.7020609794824 L 1020 680.5086642503081 L 1040 681.3836555846235 L 1060 682.321438023889 L 1080 683.3160129607744 L 1100 684.3610185097754 L 1120 685.4497702015698 L 1140 686.5753037408098 L 1160 687.7304195538459 L 1180 688.907728841429 L 1200 690.0997008418104 L 1220 691.2987110019176 L 1240 692.4970897484741 L 1260 693.6871715470957 L 1280 694.8613439355505 L 1300 696.0120962175394 L 1320 697.1320675055206 L 1340 698.2140938052712 L 1360 699.2512538410014 L 1380 700.2369133279002 L 1400 701.1647674089181 L 1420 702.0288809843365 L 1440 702.8237266761512 L 1460 703.5442201844289 L 1480 704.1857528094768 L 1500 704.7442209317921 L 1520 705.2160522612232 L 1540 705.598228687436 L 1560 705.8883055855198 L 1580 706.0844274532448 L 1600 706.1853397799441 L 1620 706.1903970711008 L 1640 706.0995669773101 L 1660 705.913430501205 L 1680 705.6331782810221 L 1700 705.2606029745805 L 1720 704.798087792389 L 1740 704.2485912532318 L 1760 703.6156282597448 L 1780 702.9032476150334 L 1800 702.11600612415 L 1820 701.2589394460916 L 1840 700.3375298827679 L 1860 699.3576713109766 L 1880 698.325631481707 L 1900 697.2480119279218 L 1920 696.1317057372751 " stroke="rgba(200,200,200,0.15)" fill="none" stroke-width="2"/> 
<path d="M 0 734.4000000000001 L 0 742.4450628717931 L 20 742.0744334036546 L 40 741.6761842626564 L 60 741.2517487156488 L 80 740.8026542722654 L 100 740.3305171875388 L 120 739.8370366451271 L 140 739.3239886420879 L 160 738.7932195972069 L 180 738.2466397058837 L 200 737.6862160654917 L 220 737.1139655959514 L 240 736.5319477809969 L 260 735.9422572562581 L 280 735.3470162708347 L 300 734.7483670494912 L 320 734.1484640829608 L 340 733.5494663741055 L 360 732.9535296678373 L 380 732.3627986927645 L 400 731.7793994424842 L 420 731.2054315243021 L 440 730.6429606029125 L 460 730.0940109662366 L 480 729.5605582401723 L 500 729.0445222784733 L 520 728.54776025335 L 540 728.0720599716541 L 560 727.619133440705 L 580 727.1906107069123 L 600 726.7880339893685 L 620 726.4128521295261 L 640 726.0664153769328 L 660 725.7499705297911 L 680 725.4646564478313 L 700 725.2114999536462 L 720 724.9914121372389 L 740 724.8051850770817 L 760 724.6534889894903 L 780 724.5368698165679 L 800 724.4557472614035 L 820 724.4104132775938 L 840 724.4010310185256 L 860 724.4276342502001 L 880 724.4901272297111 L 900 724.5882850498168 L 920 724.7217544483625 L 940 724.8900550796432 L 960 725.0925812431291 L 980 725.3286040633335 L 1000 725.597274112978 L 1020 725.8976244700125 L 1040 726.2285741974913 L 1060 726.5889322337781 L 1080 726.9774016790825 L 1100 727.3925844628978 L 1120 727.832986375546 L 1140 728.2970224457187 L 1160 728.7830226446619 L 1180 729.2892378964766 L 1200 729.8138463729032 L 1220 730.3549600499358 L 1240 730.9106315026697 L 1260 731.4788609139282 L 1280 732.0576032714449 L 1300 732.6447757276995 L 1320 733.2382650959197 L 1340 733.8359354552714 L 1360 734.4356358378675 L 1380 735.0352079699293 L 1400 735.6324940392417 L 1420 736.2253444609466 L 1440 736.8116256137276 L 1460 737.3892275185424 L 1480 737.9560714322688 L 1500 738.5101173289353 L 1520 739.0493712416117 L 1540 739.5718924385367 L 1560 740.0758004076565 L 1580 740.5592816244377 L 1600 741.0205960785969 L 1620 741.458083536259 L 1640 741.8701695150061 L 1660 742.255370950314 L 1680 742.6123015329837 L 1700 742.9396766983558 L 1720 743.2363182493582 L 1740 743.5011585967413 L 1760 743.7332446012482 L 1780 743.9317410038851 L 1800 744.0959334319532 L 1820 744.2252309700177 L 1840 744.3191682865664 L 1860 744.3774073086998 L 1880 744.3997384388288 L 1900 744.3860813089996 L 1920 744.3364850701316 " stroke="rgba(160,160,160,0.1)" fill="none" stroke-width="2"/> 
<path d="M 0 777.6 L 0 767.6608015991038 L 20 767.6247212046452 L 40 767.6045991283132 L 60 767.6004675611374 L 80 767.612333112744 L 100 767.6401768007815 L 120 767.6839540812889 L 140 767.7435949199559 L 160 767.8190039041633 L 180 767.9100603956228 L 200 768.0166187233725 L 220 768.1385084168193 L 240 768.275534478455 L 260 768.4274776958122 L 280 768.5940949921555 L 300 768.7751198153543 L 320 768.9702625643076 L 340 769.1792110522457 L 360 769.401631006161 L 380 769.6371666015743 L 400 769.885441031778 L 420 770.146057110646 L 440 770.4185979080472 L 460 770.7026274168448 L 480 770.9976912504145 L 500 771.3033173695661 L 520 771.6190168377058 L 540 771.94428460303 L 560 772.2786003065012 L 580 772.6214291143106 L 600 772.9722225734986 L 620 773.3304194893624 L 640 773.6954468232481 L 660 774.0667206092895 L 680 774.4436468886302 L 700 774.8256226596294 L 720 775.2120368425378 L 740 775.6022712570931 L 760 775.9957016114777 L 780 776.3916985010518 L 800 776.789628415267 L 820 777.1888547511477 L 840 777.5887388317202 L 860 777.9886409277598 L 880 778.3879212812205 L 900 778.7859411287124 L 920 779.1820637233855 L 940 779.57565535359 L 960 779.9660863566795 L 980 780.3527321263366 L 1000 780.7349741118096 L 1020 781.1122008074626 L 1040 781.4838087310532 L 1060 781.8492033891757 L 1080 782.207800228324 L 1100 782.559025570052 L 1120 782.9023175287368 L 1140 783.2371269104764 L 1160 783.5629180916823 L 1180 783.8791698759627 L 1200 784.1853763279264 L 1220 784.4810475825708 L 1240 784.7657106289616 L 1260 785.0389100669495 L 1280 785.3002088357131 L 1300 785.5491889129631 L 1320 785.7854519836891 L 1340 786.0086200773776 L 1360 786.2183361726857 L 1380 786.4142647685978 L 1400 786.5960924211563 L 1420 786.763528244905 L 1440 786.9163043782437 L 1460 787.0541764119494 L 1480 787.1769237801794 L 1500 787.2843501133292 L 1520 787.3762835521823 L 1540 787.4525770228477 L 1560 787.5131084720476 L 1580 787.5577810623759 L 1600 787.5865233272177 L 1620 787.5992892850807 L 1640 787.5960585131555 L 1660 787.5768361799879 L 1680 787.5416530372107 L 1700 787.4905653703468 L 1720 787.423654908765 L 1740 787.3410286949305 L 1760 787.2428189131595 L 1780 787.1291826781523 L 1800 787.000301783644 L 1820 786.8563824115727 L 1840 786.6976548022324 L 1860 786.524372885938 L 1880 786.3368138767908 L 1900 786.135277829195 L 1920 785.9200871578346 " stroke="rgba(200,200,200,0.15)" fill="none" stroke-width="2"/> 
<path d="M 0 820.8000000000001 L 0 805.7786439103666 L 20 806.3186986183639 L 40 806.8819203193924 L 60 807.4674079788779 L 80 808.0742249414626 L 100 808.7014004294537 L 120 809.3479310958608 L 140 810.0127826295367 L 160 810.694891409855 L 180 811.3931662082762 L 200 812.1064899340798 L 220 812.8337214214723 L 240 813.5736972552083 L 260 814.3252336318071 L 280 815.0871282533851 L 300 815.8581622510767 L 320 816.637102134964 L 340 817.4227017673979 L 360 818.2137043565522 L 380 819.0088444670223 L 400 819.8068500442523 L 420 820.6064444495508 L 440 821.4063485024406 L 460 822.2052825270737 L 480 823.0019683994411 L 500 823.7951315920977 L 520 824.5835032131342 L 540 825.3658220361341 L 560 826.1408365178662 L 580 826.9073068004874 L 600 827.6640066950505 L 620 828.4097256431448 L 640 829.1432706535317 L 660 829.8634682106757 L 680 830.5691661521194 L 700 831.2592355116973 L 720 831.9325723256411 L 740 832.5880993986859 L 760 833.2247680273533 L 780 833.8415596776528 L 800 834.437487614519 L 820 835.0115984803775 L 840 835.5629738203135 L 860 836.0907315514032 L 880 836.5940273738596 L 900 837.0720561217306 L 920 837.5240530509938 L 940 837.9492950629829 L 960 838.3471018611925 L 980 838.7168370396063 L 1000 839.0579091008113 L 1020 839.369772402268 L 1040 839.6519280292213 L 1060 839.903924592858 L 1080 840.1253589524325 L 1100 840.3158768602067 L 1120 840.4751735281694 L 1140 840.6029941156337 L 1160 840.6991341369263 L 1180 840.7634397885221 L 1200 840.7958081950962 L 1220 840.7961875741032 L 1240 840.7645773186174 L 1260 840.7010279983044 L 1280 840.6056412785205 L 1300 840.478569757669 L 1320 840.3200167230763 L 1340 840.1302358257748 L 1360 839.9095306747157 L 1380 839.6582543510596 L 1400 839.3768088433214 L 1420 839.0656444042752 L 1440 838.7252588306451 L 1460 838.3561966667372 L 1480 837.9590483332848 L 1500 837.5344491829009 L 1520 837.0830784836497 L 1540 836.6056583323629 L 1560 836.1029524994383 L 1580 835.5757652069702 L 1600 835.0249398421662 L 1620 834.4513576081067 L 1640 833.8559361140085 L 1660 833.2396279072458 L 1680 832.6034189494771 L 1700 831.9483270393179 L 1720 831.2754001840785 L 1740 830.5857149231775 L 1760 829.8803746059074 L 1780 829.160507626311 L 1800 828.4272656179922 L 1820 827.6818216117481 L 1840 826.9253681589687 L 1860 826.1591154238105 L 1880 825.3842892471911 L 1900 824.6021291857058 L 1920 823.8138865286011 " stroke="rgba(180,180,180,0.2)" fill="none" stroke-width="2"/> 
<path d="M 0 864.0 L 0 865.8775353833031 L 20 866.7665430652788 L 40 867.6455941797275 L 60 868.5115250918984 L 80 869.3612193856011 L 100 870.1916190789376 L 120 870.9997356297362 L 140 871.7826606910752 L 160 872.5375765781912 L 180 873.261766409102 L 200 873.9526238824476 L 220 874.6076626573604 L 240 875.2245253016076 L 260 875.8009917758019 L 280 876.334987423145 L 300 876.8245904359527 L 320 877.2680387720868 L 340 877.6637364964037 L 360 878.0102595243983 L 380 878.3063607473697 L 400 878.5509745206663 L 420 878.7432204988552 L 440 878.8824068040158 L 460 878.9680325157526 L 480 878.9997894739681 L 500 878.9775633879061 L 520 878.9014342474751 L 540 878.7716760353711 L 560 878.5887557410357 L 580 878.3533316799981 L 600 878.0662511246506 L 620 877.7285472549828 L 640 877.3414354402489 L 660 876.9063088649515 L 680 876.4247335148813 L 700 875.8984425412596 L 720 875.3293300232654 L 740 874.7194441513956 L 760 874.0709798561912 L 780 873.3862709088578 L 800 872.6677815222088 L 820 871.9180974821604 L 840 871.1399168416955 L 860 870.3360402107854 L 880 869.5093606772188 L 900 868.6628533946098 L 920 867.7995648750575 L 940 866.9226020249928 L 960 866.0351209636696 L 980 865.1403156645439 L 1000 864.2414064604192 L 1020 863.3416284537245 L 1040 862.4442198736406 L 1060 861.5524104219705 L 1080 860.6694096497018 L 1100 859.7983954060883 L 1120 858.9425024018244 L 1140 858.1048109274719 L 1160 857.2883357677403 L 1180 856.4960153515171 L 1200 855.7307011766977 L 1220 854.9951475478709 L 1240 854.2920016637981 L 1260 853.6237940903557 L 1280 852.9929296532301 L 1300 852.4016787831433 L 1320 851.8521693447535 L 1340 851.3463789786396 L 1360 850.8861279839317 L 1380 850.4730727671994 L 1400 850.1086998811767 L 1420 849.7943206747777 L 1440 849.531066573657 L 1460 849.319885008298 L 1480 849.1615360042873 L 1500 849.056589447043 L 1520 849.0054230308425 L 1540 849.008220899531 L 1560 849.0649729838027 L 1580 849.1754750374389 L 1600 849.3393293723744 L 1620 849.555946289945 L 1640 849.8245462031657 L 1660 850.1441624424019 L 1680 850.5136447343366 L 1700 850.9316633417116 L 1720 851.3967138489463 L 1740 851.9071225764092 L 1760 852.4610526038565 L 1780 853.056510381362 L 1800 853.6913529039441 L 1820 854.3632954240691 L 1840 855.0699196742752 L 1860 855.8086825703244 L 1880 856.5769253635592 L 1900 857.3718832095267 L 1920 858.1906951184325 " stroke="rgba(200,200,200,0.15)" fill="none" stroke-width="2"/> 
<path d="M 0 907.2 L 0 896.5483147271634 L 20 896.1344945558102 L 40 895.7383768326524 L 60 895.3605952615466 L 80 895.0017542124172 L 100 894.6624277543943 L 120 894.343158737425 L 140 894.0444579238293 L 160 893.7668031711895 L 180 893.5106386678799 L 200 893.2763742224605 L 220 893.06438460807 L 240 892.8750089628694 L 260 892.7085502474931 L 280 892.5652747603765 L 300 892.4454117117351 L 320 892.3491528568773 L 340 892.2766521894366 L 360 892.2280256950152 L 380 892.2033511656309 L 400 892.2026680752671 L 420 892.2259775167227 L 440 892.2732421998637 L 460 892.3443865112799 L 480 892.4392966352494 L 500 892.5578207358205 L 520 892.6997691997159 L 540 892.8649149396742 L 560 893.0529937577406 L 580 893.2637047679276 L 600 893.4967108775681 L 620 893.7516393265921 L 640 894.028082283863 L 660 894.3255974996204 L 680 894.6437090129857 L 700 894.9819079133977 L 720 895.339653154761 L 740 895.7163724210042 L 760 896.1114630416639 L 780 896.5242929560286 L 800 896.9542017243009 L 820 897.4005015841606 L 840 897.8624785510375 L 860 898.3393935603344 L 880 898.8304836497729 L 900 899.33496317997 L 920 899.8520250912943 L 940 900.3808421949881 L 960 900.9205684964938 L 980 901.4703405488646 L 1000 902.029278834095 L 1020 902.5964891701624 L 1040 903.1710641415277 L 1060 903.7520845508061 L 1080 904.3386208892871 L 1100 904.9297348239502 L 1120 905.5244806985977 L 1140 906.1219070467023 L 1160 906.7210581135513 L 1180 907.3209753852498 L 1200 907.9206991221386 L 1220 908.5192698941729 L 1240 909.1157301158058 L 1260 909.7091255779206 L 1280 910.2985069743625 L 1300 910.8829314206249 L 1320 911.4614639622644 L 1340 912.0331790706281 L 1360 912.597162123502 L 1380 913.1525108683115 L 1400 913.698336865533 L 1420 914.2337669100075 L 1440 914.757944427883 L 1460 915.2700308469493 L 1480 915.7692069381753 L 1500 916.2546741263002 L 1520 916.7256557673837 L 1540 917.181398391271 L 1560 917.6211729069837 L 1580 918.0442757691102 L 1600 918.4500301033282 L 1620 918.8377867892594 L 1640 919.2069254989232 L 1660 919.5568556891295 L 1680 919.8870175462218 L 1700 920.1968828816596 L 1720 920.4859559770072 L 1740 920.7537743769777 L 1760 920.9999096292627 L 1780 921.2239679699646 L 1800 921.4255909535348 L 1820 921.6044560262103 L 1840 921.7602770420306 L 1860 921.8928047206103 L 1880 922.001827045935 L 1900 922.0871696055408 L 1920 922.148695869538 " stroke="rgba(180,180,180,0.2)" fill="none" stroke-width="2"/> 
<path d="M 0 950.4000000000001 L 0 960.2898082642228 L 20 960.9482817833327 L 40 961.5687928788001 L 60 962.1491083807528 L 80 962.6871397800492 L 100 963.180950744656 L 120 963.6287640883526 L 140 964.0289681666819 L 160 964.3801226771308 L 180 964.6809638426627 L 200 964.9304089599511 L 220 965.1275602959425 L 240 965.2717083187251 L 260 965.362334251078 L 280 965.399111937509 L 300 965.3819090180621 L 320 965.3107874046704 L 340 965.1860030583399 L 360 965.0080050679666 L 380 964.7774340341009 L 400 964.4951197634781 L 420 964.1620782826095 L 440 963.7795081811846 L 460 963.3487862984425 L 480 962.8714627680371 L 500 962.3492554392303 L 520 961.7840436944896 L 540 961.1778616857407 L 560 960.532891013617 L 580 959.8514528760535 L 600 959.1359997144805 L 620 958.3891063876829 L 640 957.6134609050891 L 660 956.8118547528401 L 680 955.987172847453 L 700 955.1423831532378 L 720 954.2805260008302 L 740 953.4047031452847 L 760 952.5180666031063 L 780 951.623807308394 L 800 950.7251436289249 L 820 949.8253097835046 L 840 948.9275442022728 L 860 948.0350778718513 L 880 947.1511227072817 L 900 946.2788599925995 L 920 945.4214289316467 L 940 944.5819153503285 L 960 943.7633405909717 L 980 942.9686506387552 L 1000 942.200705519345 L 1020 941.4622690058895 L 1040 940.7559986724218 L 1060 940.0844363294616 L 1080 939.4499988762434 L 1100 938.8549696024886 L 1120 938.3014899710281 L 1140 937.791551910849 L 1160 937.3269906483008 L 1180 936.9094781022627 L 1200 936.5405168670412 L 1220 936.2214348046526 L 1240 935.9533802659543 L 1260 935.7373179578212 L 1280 935.5740254712438 L 1300 935.4640904828385 L 1320 935.4079086398484 L 1340 935.4056821362391 L 1360 935.4574189850191 L 1380 935.5629329894019 L 1400 935.7218444129134 L 1420 935.9335813460324 L 1440 936.1973817644483 L 1460 936.5122962715251 L 1480 936.8771915151041 L 1500 937.2907542663479 L 1520 937.7514961459465 L 1540 938.2577589806745 L 1560 938.8077207710253 L 1580 939.3994022484412 L 1600 940.0306739985426 L 1620 940.6992641247211 L 1640 941.402766424513 L 1660 942.1386490493302 L 1680 942.9042636163815 L 1700 943.6968547399899 L 1720 944.5135699480061 L 1740 945.3514699476278 L 1760 946.20753920368 L 1780 947.0786967912844 L 1800 947.9618074838633 L 1820 948.8536930365683 L 1840 949.7511436245304 L 1860 950.6509293947635 L 1880 951.5498120901467 L 1900 952.4445567036533 L 1920 953.3319431208832 " stroke="rgba(200,200,200,0.15)" fill="none" stroke-width="2"/> 
<path d="M 0 993.6 L 0 968.8686526370243 L 20 969.1323359040498 L 40 969.4840763399143 L 60 969.9226080588828 L 80 970.4463528203244 L 100 971.0534257086744 L 120 971.7416419170947 L 140 972.5085246104194 L 160 973.3513138390865 L 180 974.2669764719759 L 200 975.2522171124062 L 220 976.303489958004 L 240 977.4170115617636 L 260 978.5887744483706 L 280 979.8145615367852 L 300 981.0899613171803 L 320 982.4103837276128 L 340 983.7710766732906 L 360 985.167143128981 L 380 986.5935587630146 L 400 988.0451900194527 L 420 989.5168125933458 L 440 991.0031302325897 L 460 992.4987937987133 L 480 993.9984205180018 L 500 995.4966133536678 L 520 996.9879804293573 L 540 998.467154434081 L 560 999.928811938738 L 580 1001.3676925547122 L 600 1002.7786178655908 L 620 1004.1565100638712 L 640 1005.4964102255844 L 660 1006.7934961570669 L 680 1008.0430997496501 L 700 1009.2407237798105 L 720 1010.3820580943184 L 740 1011.4629951221347 L 760 1012.479644657231 L 780 1013.428347859131 L 800 1014.3056904207841 L 820 1015.1085148563849 L 840 1015.8339318649114 L 860 1016.4793307284892 L 880 1017.0423887081567 L 900 1017.5210794032168 L 920 1017.913680044091 L 940 1018.2187776924301 L 960 1018.435274326166 L 980 1018.5623907912055 L 1000 1018.5996696055438 L 1020 1018.5469766057056 L 1040 1018.4045014295887 L 1060 1018.1727568339722 L 1080 1017.8525768491464 L 1100 1017.4451137773038 L 1120 1016.9518340454957 L 1140 1016.3745129280784 L 1160 1015.7152281576425 L 1180 1014.9763524474196 L 1200 1014.1605449520764 L 1220 1013.2707416976298 L 1240 1012.3101450149237 L 1260 1011.2822120146957 L 1280 1010.1906421457123 L 1300 1009.0393638807479 L 1320 1007.832520578325 L 1340 1006.5744555710978 L 1360 1005.2696965345455 L 1380 1003.9229391922287 L 1400 1002.5390304162563 L 1420 1001.12295078378 L 1440 999.6797966522939 L 1460 998.2147618182521 L 1480 996.7331188250093 L 1500 995.2401999873588 L 1520 993.7413782009572 L 1540 992.2420476057023 L 1560 990.7476041726543 L 1580 989.2634262843669 L 1600 987.794855378518 L 1620 986.3471767245028 L 1640 984.92560040217 L 1660 983.5352425511619 L 1680 982.181106958336 L 1700 980.8680670495354 L 1720 979.6008483505187 L 1740 978.3840114801707 L 1760 977.2219357371982 L 1780 976.118803339385 L 1800 975.0785843721229 L 1820 974.1050225003926 L 1840 973.2016214956114 L 1860 972.3716326258409 L 1880 971.6180429547314 L 1900 970.9435645913202 L 1920 970.350624929366 " stroke="rgba(200,200,200,0.15)" fill="none" stroke-width="2"/> 
<path d="M 0 1036.8000000000002 L 0 1015.2022467138318 L 20 1014.7160109161475 L 40 1014.2651047899976 L 60 1013.8502496889959 L 80 1013.472109292806 L 100 1013.1312885453964 L 120 1012.8283326872584 L 140 1012.5637263831378 L 160 1012.3378929466749 L 180 1012.1511936631928 L 200 1012.003927211718 L 220 1011.8963291871577 L 240 1011.8285717233981 L 260 1011.8007632179273 L 280 1011.8129481584216 L 300 1011.8651070515757 L 320 1011.9571564542872 L 340 1012.0889491071479 L 360 1012.2602741700273 L 380 1012.4708575593725 L 400 1012.7203623866824 L 420 1013.0083894974581 L 440 1013.3344781097651 L 460 1013.6981065513854 L 480 1014.0986930943825 L 500 1014.5355968857413 L 520 1015.0081189725969 L 540 1015.5155034204097 L 560 1016.0569385222993 L 580 1016.6315580976029 L 600 1017.2384428775788 L 620 1017.876621976041 L 640 1018.5450744425694 L 660 1019.2427308958135 L 680 1019.9684752342731 L 700 1020.7211464218242 L 720 1021.4995403451278 L 740 1022.3024117399552 L 760 1023.1284761833448 L 780 1023.976412148405 L 800 1024.8448631184747 L 820 1025.7324397572618 L 840 1026.6377221314835 L 860 1027.559261982458 L 880 1028.4955850430083 L 900 1029.4451933959758 L 920 1030.4065678705679 L 940 1031.3781704727076 L 960 1032.3584468454956 L 980 1033.34582875585 L 1000 1034.3387366033448 L 1020 1035.3355819472324 L 1040 1036.3347700476122 L 1060 1037.334702416672 L 1080 1038.3337793759285 L 1100 1039.3304026153728 L 1120 1040.3229777504228 L 1140 1041.3099168726005 L 1160 1042.2896410898463 L 1180 1043.2605830524094 L 1200 1044.221189460273 L 1220 1045.1699235481026 L 1240 1046.1052675437438 L 1260 1047.025725096333 L 1280 1047.9298236701395 L 1300 1048.8161169003097 L 1320 1049.683186906741 L 1340 1050.529646562388 L 1360 1051.3541417123704 L 1380 1052.1553533403307 L 1400 1052.9319996785807 L 1420 1053.6828382586548 L 1440 1054.4066678989948 L 1460 1055.1023306265856 L 1480 1055.7687135294625 L 1500 1056.4047505371357 L 1520 1057.0094241260729 L 1540 1057.5817669475223 L 1560 1058.120863375063 L 1580 1058.6258509694117 L 1600 1059.0959218581427 L 1620 1059.5303240281103 L 1640 1059.92836252851 L 1660 1060.2894005826518 L 1680 1060.6128606066661 L 1700 1060.8982251335158 L 1720 1061.1450376408322 L 1740 1061.3529032812546 L 1760 1061.5214895141 L 1780 1061.6505266373597 L 1800 1061.7398082191623 L 1820 1061.789191428023 L 1840 1061.7985972613421 L 1860 1061.7680106717928 L 1880 1061.6974805913933 L 1900 1061.587119853227 L 1920 1061.4371050109323 " stroke="rgba(200,200,200,0.15)" fill="none" stroke-width="2"/> 

</g>
</svg>
