<svg width="1920" height="1080" viewBox="0 0 1920 1080" xmlns="http://www.w3.org/2000/svg">
<path d="M 0 457 L 0 544.0049724728075 L 20 520.8087107334599 L 40 536.3646742249383 L 60 564.1577959511925 L 80 566.9167052532583 L 100 499.2456915376855 L 120 521.74637649997 L 140 525.2899001889609 L 160 527.3419626201359 L 180 557.5834906485904 L 200 555.5419922790444 L 220 552.700254489735 L 240 562.1562574774257 L 260 547.0648622346566 L 280 518.0627132608975 L 300 515.3761226757867 L 320 529.7003107212979 L 340 520.5057824473383 L 360 525.1799249750812 L 380 543.0938305957901 L 400 550.1435935285697 L 420 537.649180638308 L 440 519.3442350510745 L 460 524.053268668323 L 480 565.1612335052802 L 500 546.3664566363337 L 520 542.7625245985798 L 540 533.6665561718119 L 560 514.8338161294635 L 580 519.5374312194687 L 600 562.7158934119446 L 620 548.1402899665785 L 640 534.1375446208145 L 660 576.9060365034286 L 680 520.7164383555544 L 700 521.9439566895337 L 720 550.1625580745846 L 740 499.66506745366934 L 760 510.77397892965126 L 780 495.9226082424959 L 800 542.1656413938821 L 820 543.51428627831 L 840 526.7918851364149 L 860 534.06185698432 L 880 533.7393078962419 L 900 538.9272603319374 L 920 533.605113276016 L 940 579.5915130457897 L 960 502.312898853562 L 980 524.6108544063478 L 1000 512.9369426922746 L 1020 538.0729989332648 L 1040 541.6850363228936 L 1060 506.5586769263005 L 1080 542.8745727542455 L 1100 554.7977011737873 L 1120 526.0552685574504 L 1140 544.0081489873788 L 1160 535.5718369839456 L 1180 505.383917720272 L 1200 531.2518729796715 L 1220 561.98169001396 L 1240 530.0503416231664 L 1260 535.9794154495971 L 1280 519.7105476114006 L 1300 548.4622369144022 L 1320 527.2564291183888 L 1340 559.1275858567035 L 1360 570.0737593837339 L 1380 539.6814594828827 L 1400 514.6208043614571 L 1420 566.098708163851 L 1440 549.2503950041886 L 1460 537.2472630654856 L 1480 523.6392331002568 L 1500 546.0095921315465 L 1520 545.3431558161043 L 1540 533.9422326471482 L 1560 536.0963392024089 L 1580 547.2694076180251 L 1600 574.2028914285404 L 1620 568.8803648801259 L 1640 548.8006153111816 L 1660 547.9843652925665 L 1680 529.0989595964669 L 1700 515.4611886113938 L 1720 552.7122284120485 L 1740 535.2545914002834 L 1760 555.1590696235135 L 1780 516.1570703259642 L 1800 532.803932426165 L 1820 528.3890041345251 L 1840 562.8409335234107 L 1860 542.2763965350695 L 1880 529.217866001367 L 1900 539.1542225681259 L 1920 548.8557373305487 L 1940 568.8373135945822 L 1960 544.6179284784636 L 1980 529.4302908919354 L 2000 541.8481492810137 L 2020 528.3415314098285 L 2040 553.7846409948404 L 2060 549.9381244101946 L 2080 531.5846500061946 L 2100 521.6172145042644 " stroke="rgba(192,192,192,0.18275713209597977)" fill="none" stroke-width="2" transform="rotate(-10 960.0 540.0)" /><path d="M 0 795 L 0 551.5044246415163 L 20 496.00949299880006 L 40 575.1885230839437 L 60 501.50437027100514 L 80 508.23721405253826 L 100 547.9833972371524 L 120 546.1105509445397 L 140 590.0844727177027 L 160 543.8508021265677 L 180 583.5274551915916 L 200 551.9643030929861 L 220 509.1204827411128 L 240 526.5669663470418 L 260 556.3114834407535 L 280 536.4227550604533 L 300 595.5070351561582 L 320 508.7620659458126 L 340 579.0084380000545 L 360 552.7934526305058 L 380 588.1110758668073 L 400 560.1785145513795 L 420 528.1803737787417 L 440 512.4076177362986 L 460 541.2799835512623 L 480 483.12241222255386 L 500 545.2389583564895 L 520 534.2773432582906 L 540 523.0960784018152 L 560 586.945527286816 L 580 579.5531112600739 L 600 491.4827457803971 L 620 566.5112250252854 L 640 581.4752523513145 L 660 578.0817148141185 L 680 512.2938159585073 L 700 574.2756715107726 L 720 613.3852594032529 L 740 540.7161129433042 L 760 523.3879849126897 L 780 515.3949065361777 L 800 583.6266544314375 L 820 551.54014840234 L 840 584.9773285889165 L 860 524.4945496758742 L 880 460.0048586298532 L 900 563.4736155192996 L 920 583.1390482297459 L 940 528.3505811610698 L 960 596.1950348922666 L 980 500.7921510098031 L 1000 549.7082173200963 L 1020 526.9377577023502 L 1040 510.6501735286167 L 1060 492.95940519761643 L 1080 594.6983980769334 L 1100 557.2109568154507 L 1120 564.7696303452751 L 1140 530.7779087726087 L 1160 553.5316177797489 L 1180 544.8446762223584 L 1200 593.6730342517742 L 1220 506.24380907930197 L 1240 564.0488558071856 L 1260 578.900809651618 L 1280 497.67601481862084 L 1300 553.4231169972455 L 1320 531.144545825534 L 1340 540.8280000514269 L 1360 492.268916502946 L 1380 577.1121621784303 L 1400 533.7684948010728 L 1420 517.2218461521107 L 1440 548.7456253606231 L 1460 555.9081050406571 L 1480 601.7122973814779 L 1500 587.1088806126293 L 1520 497.4458446004111 L 1540 520.6545023319443 L 1560 504.8529010770832 L 1580 578.4671002088589 L 1600 583.8882347233969 L 1620 553.1545406246702 L 1640 591.0644944598755 L 1660 534.4136238270031 L 1680 531.2795533930905 L 1700 584.2936557572793 L 1720 588.9265753923718 L 1740 490.889325191632 L 1760 574.9262923229237 L 1780 561.4390819150113 L 1800 533.8188323278015 L 1820 465.9483934893153 L 1840 577.7351187506637 L 1860 556.405539220568 L 1880 510.3536285032727 L 1900 516.7291101831861 L 1920 503.95229928799415 L 1940 596.3002002045033 L 1960 483.52921240939537 L 1980 478.15020602267776 L 2000 548.7451349893163 L 2020 561.9249865434152 L 2040 555.1992655689927 L 2060 553.5893583014242 L 2080 563.6823610855826 L 2100 482.44282439010954 " stroke="rgba(192,192,192,0.14353155083589503)" fill="none" stroke-width="2" transform="rotate(-10 960.0 540.0)" /><path d="M 0 111 L 0 504.47751689505907 L 20 459.40497095335144 L 40 550.3093758458014 L 60 564.9889987194729 L 80 539.7471343893826 L 100 479.41542163002845 L 120 589.945554417333 L 140 563.0360896250712 L 160 502.48591552695655 L 180 528.3917234381357 L 200 534.6620596700649 L 220 574.7521355794489 L 240 490.0057153976078 L 260 494.91079594544544 L 280 554.7458329717575 L 300 556.7744549663519 L 320 555.2804617284426 L 340 570.8274845786574 L 360 472.6826989469815 L 380 522.1885782545487 L 400 560.0744492882706 L 420 520.5944209231939 L 440 473.9878243450579 L 460 515.0226713098389 L 480 555.8868552673445 L 500 539.2878855678674 L 520 466.22401348915474 L 540 549.1347757868938 L 560 488.2883547524502 L 580 552.1794757480823 L 600 570.829086901967 L 620 501.1862633437085 L 640 467.11624866834313 L 660 490.74416623607465 L 680 507.96804257192986 L 700 504.96427462130237 L 720 554.8564667978047 L 740 582.4404270409868 L 760 542.1751887820307 L 780 538.7791380311023 L 800 583.5057307918577 L 820 558.3653020986169 L 840 576.228635345102 L 860 525.1682389072794 L 880 592.386433967161 L 900 613.638461482237 L 920 566.0644805027297 L 940 603.2713772540274 L 960 512.3392774894027 L 980 591.6822807527809 L 1000 578.0556435643441 L 1020 506.7475531946563 L 1040 523.174843193909 L 1060 504.0132088542933 L 1080 591.5053189877162 L 1100 520.0923002920114 L 1120 562.540483222733 L 1140 536.830415299358 L 1160 466.12013633525163 L 1180 529.8344158182881 L 1200 514.521547105919 L 1220 536.6798848432181 L 1240 535.6906948442141 L 1260 537.4881635487458 L 1280 558.5529330651319 L 1300 530.8900063723413 L 1320 513.6296520579286 L 1340 514.8785725193334 L 1360 563.2526057395131 L 1380 569.344582633077 L 1400 567.9894653438419 L 1420 552.0897555204624 L 1440 558.3506815102461 L 1460 507.8412068189672 L 1480 573.8296880026024 L 1500 557.6778986581231 L 1520 528.9755081832507 L 1540 488.23680454159063 L 1560 559.2211439096404 L 1580 528.8615603492608 L 1600 568.1271131604042 L 1620 548.5813243182233 L 1640 489.9502679556719 L 1660 495.70122138035237 L 1680 497.12544325921056 L 1700 585.7680611052959 L 1720 488.3456172314942 L 1740 597.3743446500581 L 1760 577.7416345629609 L 1780 583.8787052700335 L 1800 536.2389143497727 L 1820 610.8727421697444 L 1840 554.4356209505981 L 1860 530.4217897284707 L 1880 564.6735756958288 L 1900 501.2698004300235 L 1920 516.2215761194041 L 1940 521.8651335677683 L 1960 576.4581059768641 L 1980 481.7722529707206 L 2000 524.3901123933864 L 2020 545.0857609473501 L 2040 557.580352483069 L 2060 563.0477629863055 L 2080 501.4605238863445 L 2100 519.724822829035 " stroke="rgba(192,192,192,0.09965812378924693)" fill="none" stroke-width="2" transform="rotate(-10 960.0 540.0)" /><path d="M 0 307 L 0 562.7970542289659 L 20 541.7964268984667 L 40 489.28241857589705 L 60 549.9892979227674 L 80 544.3987667962715 L 100 522.8368077756585 L 120 517.7591293559835 L 140 491.2795191469625 L 160 619.638461988824 L 180 561.8157634482103 L 200 587.6519201783483 L 220 514.5427260855846 L 240 484.2319640263368 L 260 556.2831533648146 L 280 502.3865929984238 L 300 516.9155087641308 L 320 507.0589245030377 L 340 577.6218464737016 L 360 549.734731736617 L 380 542.1268492736157 L 400 496.3331709953261 L 420 562.2412587633139 L 440 565.6013522358109 L 460 484.44868511168613 L 480 527.4751195662741 L 500 554.8191062496294 L 520 544.676278494496 L 540 526.6214653571565 L 560 616.7034693497679 L 580 579.1336372746272 L 600 530.8521683674138 L 620 495.3366387228722 L 640 524.4117823045756 L 660 510.6421800153831 L 680 531.3219288779072 L 700 481.1320411224137 L 720 546.6007654222655 L 740 520.4815021210412 L 760 547.0640792367941 L 780 488.4066926184352 L 800 562.7067064681651 L 820 533.9377549259682 L 840 570.8935170364948 L 860 544.6129384370194 L 880 542.9553583475237 L 900 555.38219738971 L 920 490.16760913397343 L 940 542.1226357319505 L 960 577.2499449141842 L 980 510.88125862713974 L 1000 568.0284886449724 L 1020 501.104239048301 L 1040 578.0086942247761 L 1060 487.9378211303287 L 1080 538.7971294647857 L 1100 507.4474303281268 L 1120 557.8485029925359 L 1140 545.7328957834746 L 1160 549.2429096652169 L 1180 554.9214938693594 L 1200 488.82286349949084 L 1220 574.6672526718472 L 1240 487.1788193450639 L 1260 482.0353883401741 L 1280 515.015981124621 L 1300 477.3044331039431 L 1320 489.91817178372025 L 1340 554.4222233050172 L 1360 582.8176768116134 L 1380 519.8923796699099 L 1400 562.072905456002 L 1420 511.8911814794895 L 1440 545.0484903957782 L 1460 566.9220491461484 L 1480 548.8613718970029 L 1500 526.5343822655991 L 1520 563.2043536675133 L 1540 556.5221206412608 L 1560 555.5168103933274 L 1580 497.8938131152927 L 1600 553.8368186953664 L 1620 534.6338957899937 L 1640 559.0895570564794 L 1660 539.5752517073151 L 1680 511.9214619989462 L 1700 547.741578348013 L 1720 490.82533202964 L 1740 551.9717922968265 L 1760 528.2875630644463 L 1780 532.7261599750259 L 1800 531.3515405361156 L 1820 557.1398931456763 L 1840 559.8980395226305 L 1860 525.3847972568518 L 1880 528.8818234405009 L 1900 564.3393118093911 L 1920 574.9391421173964 L 1940 543.3819915394023 L 1960 519.2234958643664 L 1980 608.073760141319 L 2000 504.86507875648505 L 2020 552.3962545650397 L 2040 508.35661427261533 L 2060 498.7163191826536 L 2080 534.0864770609627 L 2100 521.7894577389819 " stroke="rgba(192,192,192,0.15440336766963908)" fill="none" stroke-width="2" transform="rotate(-10 960.0 540.0)" /><path d="M 0 129 L 0 590.950196012258 L 20 555.6040394902958 L 40 470.12412982781603 L 60 611.9084235355003 L 80 510.9490151681349 L 100 530.3120749061874 L 120 513.6182077684188 L 140 507.280297270671 L 160 566.3292706966923 L 180 513.4872983589038 L 200 595.4251564292318 L 220 600.6148955375409 L 240 537.9518906701998 L 260 541.4658852370169 L 280 605.8727087738046 L 300 495.1104710742004 L 320 486.92857707482693 L 340 495.73115487273293 L 360 553.6754980452782 L 380 583.9507873056555 L 400 499.81483221362225 L 420 515.1465992523105 L 440 553.246014950581 L 460 588.4016314279647 L 480 547.5002590887992 L 500 495.7330908381295 L 520 518.7843313811879 L 540 621.3323191965096 L 560 519.8706814975856 L 580 612.42818645631 L 600 493.5297821076529 L 620 548.7212726965038 L 640 485.71411210498195 L 660 564.550803702884 L 680 544.8516269854849 L 700 548.9172232007169 L 720 525.0252986936376 L 740 573.5948954517172 L 760 550.0278112492596 L 780 588.2626134553757 L 800 538.7084834705411 L 820 505.5997311691822 L 840 504.22228285772405 L 860 588.8147887854194 L 880 465.27491586404557 L 900 578.4877324291464 L 920 538.3038104127073 L 940 541.1543091484456 L 960 581.9892179693722 L 980 568.8636087959013 L 1000 549.6371516447614 L 1020 522.5024313875278 L 1040 499.91491153674417 L 1060 479.828771768939 L 1080 594.2514338183739 L 1100 590.8988724162973 L 1120 564.7630381335338 L 1140 548.3546725126199 L 1160 527.0575052449612 L 1180 520.3609209382339 L 1200 572.0376931607116 L 1220 521.3217605951646 L 1240 594.1575352437245 L 1260 497.54184500051934 L 1280 596.6913520667658 L 1300 539.1048809434046 L 1320 503.71749411762784 L 1340 516.3016058893295 L 1360 547.5406921201056 L 1380 510.55691316233464 L 1400 517.8294393762652 L 1420 560.4870355514119 L 1440 566.6301356063108 L 1460 505.5081590952018 L 1480 533.5943981719688 L 1500 510.4529043787921 L 1520 499.119265800903 L 1540 489.1311966296782 L 1560 548.8029338513481 L 1580 557.0844082607848 L 1600 546.0710517697537 L 1620 530.7924636205637 L 1640 556.6568735965249 L 1660 569.8923850614791 L 1680 508.65620369035145 L 1700 542.2958820510819 L 1720 541.4044975355918 L 1740 519.9649542700295 L 1760 586.4884822942732 L 1780 569.3617936422085 L 1800 516.9786004055632 L 1820 577.9496991496571 L 1840 556.1067506314388 L 1860 521.8370621131899 L 1880 492.98393514298584 L 1900 487.81212936283873 L 1920 585.9273577585503 L 1940 505.5955640101821 L 1960 497.73731523196335 L 1980 595.1711940215891 L 2000 593.909079709209 L 2020 477.2247627772993 L 2040 528.1250339179204 L 2060 546.7423172119431 L 2080 527.0362103279607 L 2100 486.2870521272108 " stroke="rgba(192,192,192,0.1883521531624917)" fill="none" stroke-width="2" transform="rotate(-10 960.0 540.0)" /><path d="M 0 833 L 0 542.5733834264986 L 20 572.677412176106 L 40 552.7040006555437 L 60 518.7301653137621 L 80 515.9777550568164 L 100 537.6495860744623 L 120 608.4017053343441 L 140 542.9113033613199 L 160 546.5774414637681 L 180 536.6560297094313 L 200 583.8927178347694 L 220 503.93685519914567 L 240 583.8384178048525 L 260 567.5278804670477 L 280 604.1102476451093 L 300 503.2642779734128 L 320 519.0967546308086 L 340 550.5272011757509 L 360 568.803970114426 L 380 532.8318321424803 L 400 586.1600927908389 L 420 576.1955184448426 L 440 581.159683274889 L 460 538.1937103368343 L 480 553.4673862834977 L 500 576.7100640282571 L 520 604.7014420299836 L 540 525.5768728558216 L 560 584.1000800709145 L 580 524.0343906402655 L 600 512.9793671004186 L 620 510.4119094587483 L 640 507.3406947941313 L 660 546.8334128860714 L 680 540.5828249058878 L 700 516.2962791752666 L 720 527.2398570704263 L 740 515.5618251641785 L 760 486.36088010042823 L 780 577.2279939505597 L 800 565.7252154744251 L 820 491.7111956947908 L 840 521.1902918119695 L 860 573.1413064482334 L 880 516.2973150158238 L 900 534.1027508540151 L 920 478.0134709140742 L 940 570.719820610614 L 960 608.1148250031252 L 980 517.4236514484459 L 1000 508.41582330450467 L 1020 573.1460260775065 L 1040 550.0519582315211 L 1060 580.0070805833302 L 1080 555.2414669416964 L 1100 541.6598249010019 L 1120 488.97758626794064 L 1140 501.7937680349359 L 1160 552.3528577934477 L 1180 590.8283852333036 L 1200 508.19626407382134 L 1220 568.3351157194325 L 1240 547.1511099805832 L 1260 530.5701238342824 L 1280 562.217479193202 L 1300 542.2088094909249 L 1320 587.5028137422777 L 1340 605.368891307606 L 1360 576.5101790383073 L 1380 580.5602882219853 L 1400 495.09087873046343 L 1420 596.2253615711434 L 1440 527.8132179195619 L 1460 541.9069024751765 L 1480 508.645107097364 L 1500 564.5759242000813 L 1520 476.880852117199 L 1540 557.4556368309145 L 1560 515.8915026737498 L 1580 597.5820826464783 L 1600 506.03566353871196 L 1620 546.0039599690463 L 1640 580.7356599649909 L 1660 554.144654627121 L 1680 494.76482016438973 L 1700 575.2173962136629 L 1720 576.696905779346 L 1740 585.5111360068317 L 1760 522.3392921364358 L 1780 567.4689336130365 L 1800 561.9779361985082 L 1820 494.3193104997013 L 1840 521.369141479348 L 1860 553.2563482391746 L 1880 566.2351724076747 L 1900 526.5752487560321 L 1920 531.7509944534568 L 1940 478.65747619214613 L 1960 563.498046784304 L 1980 498.5731012141388 L 2000 541.4171721405377 L 2020 516.7734801191398 L 2040 506.6463272386802 L 2060 610.1399111640075 L 2080 594.884909294665 L 2100 514.7116137315852 " stroke="rgba(192,192,192,0.1392785277080942)" fill="none" stroke-width="2" transform="rotate(-10 960.0 540.0)" /><path d="M 0 484 L 0 590.112769840727 L 20 574.9970998720742 L 40 526.2229700709887 L 60 595.2319231960369 L 80 537.3344710650333 L 100 523.6049179299637 L 120 539.1828913156144 L 140 479.83124048222135 L 160 542.6806805704109 L 180 508.01292848187643 L 200 529.0645973166501 L 220 538.209329908371 L 240 579.4776391624878 L 260 474.54676351830227 L 280 536.6642166206199 L 300 556.2576270448844 L 320 512.6763127648081 L 340 509.87654000393684 L 360 585.0074011798378 L 380 523.4985283194522 L 400 534.2430804783717 L 420 561.4816488285446 L 440 537.1765586492185 L 460 515.3495130585593 L 480 596.9750076413675 L 500 529.9435161073471 L 520 492.783998659277 L 540 509.8672208860573 L 560 598.1960529897189 L 580 512.8419903632728 L 600 545.938419583369 L 620 585.1881965141932 L 640 571.7237488420133 L 660 534.0115631044386 L 680 587.8366479791172 L 700 487.1357374738345 L 720 562.6169432755426 L 740 549.0824606055342 L 760 584.1095785239547 L 780 562.5002120396475 L 800 509.9271859602486 L 820 529.4682380455993 L 840 489.0760186819076 L 860 489.82400259511644 L 880 606.0501648339209 L 900 526.9423858145243 L 920 535.0444743884784 L 940 544.9667666644701 L 960 480.9989732022239 L 980 473.66760102782257 L 1000 520.835568615469 L 1020 540.6353307953412 L 1040 566.2653796093139 L 1060 525.0011426744612 L 1080 547.1463667996039 L 1100 550.9307574522845 L 1120 587.3922463617171 L 1140 601.0023361050006 L 1160 489.23957449241925 L 1180 549.1682508134644 L 1200 539.1496355124575 L 1220 581.5100817171791 L 1240 569.1643458160601 L 1260 535.0007284561717 L 1280 526.2941048736585 L 1300 567.7149679651296 L 1320 562.8698261495874 L 1340 540.4511597357664 L 1360 515.4148267142515 L 1380 490.2258043865957 L 1400 593.7783643638383 L 1420 575.825628918297 L 1440 596.5700034584198 L 1460 542.7525384034714 L 1480 497.27894765457467 L 1500 480.17805520990805 L 1520 554.6486011761901 L 1540 565.7207868595555 L 1560 511.27096783581334 L 1580 532.7510727642942 L 1600 555.3340496156536 L 1620 574.5389221915559 L 1640 579.1675787031887 L 1660 499.0238818829266 L 1680 553.8238386015685 L 1700 588.440256236766 L 1720 530.111916825853 L 1740 544.4146554987572 L 1760 510.357421405958 L 1780 496.5799648347091 L 1800 523.4453769547496 L 1820 585.8575170955738 L 1840 506.6814668062775 L 1860 500.5187833135596 L 1880 576.4470779090968 L 1900 530.5760105161868 L 1920 510.2966580351847 L 1940 528.2672377678099 L 1960 558.0280846716355 L 1980 540.4013381280857 L 2000 587.4024852303671 L 2020 527.9699451889971 L 2040 507.30537941600306 L 2060 576.7918477518394 L 2080 508.6758496312363 L 2100 555.059554630307 " stroke="rgba(192,192,192,0.1374348453172825)" fill="none" stroke-width="2" transform="rotate(-10 960.0 540.0)" /><path d="M 0 1079 L 0 536.8773002877047 L 20 543.6230732859368 L 40 553.7729213303079 L 60 556.096323851902 L 80 548.6242846508347 L 100 562.143409915757 L 120 545.0236665416426 L 140 539.4634793277817 L 160 524.4534497547946 L 180 518.4250161222883 L 200 534.9486572591541 L 220 553.9710150534797 L 240 507.39838884974495 L 260 542.0827887964439 L 280 537.9628779793411 L 300 515.7760407691796 L 320 501.2217331058858 L 340 520.7707800505138 L 360 492.84410456192956 L 380 545.4127836874638 L 400 512.3231342321534 L 420 562.9068609996682 L 440 539.6528050321929 L 460 539.4668383684126 L 480 531.672466965918 L 500 575.783609099536 L 520 523.1978836195278 L 540 570.8313308078197 L 560 524.6074573414556 L 580 543.7021696013625 L 600 581.0095681635206 L 620 557.1681006854511 L 640 565.3622525211484 L 660 535.5411054018418 L 680 544.51464746665 L 700 549.9150974954263 L 720 549.2277234471597 L 740 549.5927979074951 L 760 524.9465836680464 L 780 530.8815750044616 L 800 527.1764709678812 L 820 542.0908159549934 L 840 541.1794368475697 L 860 536.2716679152396 L 880 532.4175542666601 L 900 530.7965833328037 L 920 521.6637340088765 L 940 566.4392126414658 L 960 519.5731846416285 L 980 582.3766497043683 L 1000 566.7580079366357 L 1020 561.2751784204559 L 1040 515.726003849635 L 1060 496.8735980558162 L 1080 537.2587334354282 L 1100 546.3239197792373 L 1120 577.0234409243146 L 1140 559.302509226232 L 1160 532.963280486822 L 1180 533.3892898004871 L 1200 542.1448012506415 L 1220 563.8012439479631 L 1240 509.28021856497344 L 1260 534.6034252561368 L 1280 545.8491331707793 L 1300 552.2360850837011 L 1320 579.2716970357071 L 1340 554.6299569702937 L 1360 521.6165020266052 L 1380 525.1976180936416 L 1400 524.0157099693271 L 1420 520.354430325122 L 1440 504.475389504395 L 1460 519.1783177483015 L 1480 550.9110567859238 L 1500 557.5074113942574 L 1520 496.98813869691827 L 1540 577.0894097401706 L 1560 539.1492578369624 L 1580 528.2611880546536 L 1600 543.7666541067592 L 1620 568.7513068137577 L 1640 532.3631682949336 L 1660 573.2902262259732 L 1680 569.9763069053439 L 1700 538.539704044958 L 1720 529.4620822039731 L 1740 554.5340354685251 L 1760 573.9610068933081 L 1780 515.4804956830731 L 1800 499.76043341502475 L 1820 506.3355414687736 L 1840 537.7693117023018 L 1860 524.9267761163201 L 1880 572.6479394155789 L 1900 538.1081328348167 L 1920 556.319766862383 L 1940 515.6877187885854 L 1960 522.6723311054913 L 1980 508.91915342295255 L 2000 542.84485570732 L 2020 549.7857483671975 L 2040 563.1072526988255 L 2060 572.9847310472416 L 2080 530.0391491289317 L 2100 561.6464735079247 " stroke="rgba(192,192,192,0.16012530605452666)" fill="none" stroke-width="2" transform="rotate(-10 960.0 540.0)" /><path d="M 0 670 L 0 511.8650771442356 L 20 537.501054278183 L 40 495.5107111232433 L 60 541.3108263903914 L 80 517.2531527945519 L 100 573.814563921241 L 120 516.0149807662913 L 140 537.892319878919 L 160 543.3213774914522 L 180 509.82995008667814 L 200 560.550670917436 L 220 537.4297933714275 L 240 526.0205141887428 L 260 581.2559273017706 L 280 513.2090902649351 L 300 579.8702808808736 L 320 585.2781850184897 L 340 563.54312947913 L 360 547.7530622743761 L 380 502.04381288794633 L 400 587.3013557903049 L 420 491.64602533473635 L 440 552.0673732155944 L 460 526.4846843400231 L 480 495.05298568333035 L 500 540.0467142381793 L 520 568.6018208436947 L 540 549.3540830124155 L 560 571.9611736489097 L 580 511.97413914473236 L 600 596.460977993819 L 620 561.1618259804723 L 640 591.5345182619926 L 660 564.6194570879621 L 680 591.8090670917638 L 700 573.3096675128506 L 720 528.6103468749637 L 740 527.9864871875448 L 760 570.0140989592542 L 780 505.0344301264808 L 800 556.2626588817654 L 820 586.6821223044828 L 840 558.4632068498266 L 860 586.1297190253971 L 880 565.8100145084254 L 900 508.9918241944638 L 920 590.1065860441267 L 940 567.3810132517457 L 960 544.3512455774718 L 980 532.179648393191 L 1000 558.2819054988108 L 1020 568.3965319720994 L 1040 569.3560952684024 L 1060 534.0819705331355 L 1080 565.5994088499158 L 1100 549.7597142002137 L 1120 519.7143868721462 L 1140 547.7100947436858 L 1160 531.842809075404 L 1180 576.1739521294488 L 1200 542.0885997670688 L 1220 545.3917431487624 L 1240 582.171519263059 L 1260 543.4928617592849 L 1280 559.1335463944779 L 1300 527.0589824061427 L 1320 510.21388474019733 L 1340 527.7077275732574 L 1360 490.99020566036114 L 1380 510.76250474945624 L 1400 525.191975462392 L 1420 493.24808792672974 L 1440 506.8396941678425 L 1460 574.3407621379965 L 1480 553.8021109277084 L 1500 497.4091910949778 L 1520 543.164262624586 L 1540 519.2562243025258 L 1560 526.1167310202444 L 1580 574.2859430783082 L 1600 507.7229196303236 L 1620 549.3948805807828 L 1640 502.71893582904846 L 1660 557.0301581174966 L 1680 517.8076880628348 L 1700 583.3443990004289 L 1720 544.7480547145977 L 1740 522.5213450485774 L 1760 535.1033682464221 L 1780 526.4006480367203 L 1800 582.204181241109 L 1820 570.0328299695537 L 1840 576.5695115919513 L 1860 549.2067512954327 L 1880 511.38018919635357 L 1900 532.3204754386015 L 1920 583.0692781355037 L 1940 532.331360057111 L 1960 580.1342331028102 L 1980 526.5638346816419 L 2000 533.984108710777 L 2020 540.487097880715 L 2040 552.4805795214716 L 2060 577.2297350014069 L 2080 545.82884037788 L 2100 504.89658742580116 " stroke="rgba(192,192,192,0.18378606199756797)" fill="none" stroke-width="2" transform="rotate(-10 960.0 540.0)" /><path d="M 0 411 L 0 592.3316399401854 L 20 565.0792645179065 L 40 586.7223499392436 L 60 593.0218755617041 L 80 498.82399866148614 L 100 576.9331693246397 L 120 525.6408965392477 L 140 533.4115406014863 L 160 517.4133674895177 L 180 564.6718684995143 L 200 591.6721773050848 L 220 577.8795305119172 L 240 514.3498929976654 L 260 519.3715991388428 L 280 596.4564320474557 L 300 519.3395588643422 L 320 562.737234051438 L 340 507.720218820981 L 360 553.1899767494511 L 380 561.1413545336982 L 400 568.3968814638727 L 420 506.48950032121684 L 440 525.6900588947461 L 460 523.8188154913961 L 480 543.3816053084519 L 500 525.9934007760836 L 520 520.9043976045319 L 540 493.60015769599715 L 560 499.17206979342285 L 580 523.2399672555681 L 600 508.5752843073554 L 620 540.3793862451752 L 640 556.5640731028832 L 660 503.48463531197376 L 680 557.3216179195083 L 700 551.5196746746574 L 720 519.6560703775132 L 740 493.0739752311459 L 760 587.0705214318654 L 780 523.7266482988751 L 800 588.3921077763142 L 820 519.9707161233849 L 840 542.8575383481383 L 860 549.5076377605718 L 880 539.294836111862 L 900 561.3277247678707 L 920 508.99906975848796 L 940 534.2488671126008 L 960 573.1803253526248 L 980 535.3871395367338 L 1000 483.7724246568717 L 1020 547.4414010231685 L 1040 554.2117627991464 L 1060 502.8354009894008 L 1080 548.2753160311929 L 1100 497.3088795946176 L 1120 610.4624475428809 L 1140 591.5328514074309 L 1160 550.7712506067007 L 1180 512.1453007824504 L 1200 515.8849507736736 L 1220 594.3044005196361 L 1240 580.3494280803758 L 1260 555.8027367048019 L 1280 522.6909896581748 L 1300 593.5180987609851 L 1320 538.4483634791915 L 1340 532.6659394817019 L 1360 543.7093336693345 L 1380 540.375623728766 L 1400 552.6375744857344 L 1420 510.0368202896693 L 1440 553.2794518663576 L 1460 505.80458033020005 L 1480 592.1269976951635 L 1500 588.3215870928196 L 1520 475.00744587628185 L 1540 599.1855278561465 L 1560 608.7898963628346 L 1580 575.0234855479093 L 1600 533.000595658733 L 1620 551.2818325709579 L 1640 517.6874572570874 L 1660 588.4112755057937 L 1680 496.52490244036255 L 1700 499.5704101578977 L 1720 553.7793403822536 L 1740 549.2164039362051 L 1760 484.34393691133886 L 1780 562.6050494046168 L 1800 517.6222516194767 L 1820 577.0864673259011 L 1840 522.466488956811 L 1860 485.86853534576125 L 1880 493.7221115389534 L 1900 561.811489237683 L 1920 557.5743448641265 L 1940 490.6089303868106 L 1960 493.9451874542528 L 1980 546.4870485433083 L 2000 518.9317089421712 L 2020 532.1294775381632 L 2040 560.5421414949986 L 2060 573.0706757724344 L 2080 547.868365475016 L 2100 579.9762706794879 " stroke="rgba(192,192,192,0.154245598406764)" fill="none" stroke-width="2" transform="rotate(-10 960.0 540.0)" /><path d="M 0 616 L 0 541.9963852991128 L 20 556.7967429730018 L 40 563.5026001376524 L 60 569.7887121354047 L 80 508.8507029111444 L 100 542.4616626155823 L 120 565.7210427089137 L 140 579.3513882967652 L 160 516.4537559073012 L 180 547.7264060404414 L 200 566.0739255623691 L 220 489.47244648318787 L 240 564.9956203784508 L 260 512.3084322440845 L 280 522.0538588469611 L 300 505.87324044825624 L 320 525.7493655150956 L 340 542.5633802612982 L 360 554.8889704283085 L 380 546.7356957556069 L 400 558.0745575078815 L 420 551.5298766904564 L 440 565.1570253247843 L 460 573.1955244984146 L 480 573.5260903127596 L 500 550.1585459538464 L 520 546.7432519355074 L 540 530.7953458775331 L 560 531.7012007819209 L 580 535.4998965949944 L 600 503.03973128973627 L 620 518.8411127850585 L 640 534.8011835095568 L 660 482.0002142275619 L 680 512.7580004421535 L 700 552.9823190188702 L 720 555.0793981252393 L 740 577.4175848365551 L 760 542.730866144476 L 780 546.241476773033 L 800 538.1402644009961 L 820 535.8300137595194 L 840 520.3745428294812 L 860 520.0168513892636 L 880 532.7832413959328 L 900 513.6103782252761 L 920 548.6031439704558 L 940 538.1716638334126 L 960 549.1800567684808 L 980 584.1651612461308 L 1000 493.8311480096956 L 1020 494.3781893394067 L 1040 530.6118900859416 L 1060 521.3228026794036 L 1080 510.9480054880533 L 1100 535.3625948135789 L 1120 521.682543437066 L 1140 576.5849373120461 L 1160 531.3950206792395 L 1180 538.9339381209318 L 1200 568.0956239710389 L 1220 531.0803348372747 L 1240 536.6835547212033 L 1260 531.9220100652955 L 1280 527.0789550882239 L 1300 539.6881539058897 L 1320 510.36129364508224 L 1340 526.2993677342415 L 1360 522.4091218259582 L 1380 551.2342843958636 L 1400 494.64911251623914 L 1420 526.9933927121707 L 1440 525.883544393551 L 1460 518.8769594628918 L 1480 556.6390874896455 L 1500 553.9924955564228 L 1520 541.5140836682001 L 1540 569.6779292884708 L 1560 562.9372170785766 L 1580 582.9006900223164 L 1600 543.3174346347005 L 1620 587.0447319423079 L 1640 581.5104754313719 L 1660 543.2038789873058 L 1680 540.7593377910949 L 1700 536.2292958659059 L 1720 501.6941835911146 L 1740 545.639535695226 L 1760 575.4191732839632 L 1780 539.4123960265237 L 1800 522.6238632451178 L 1820 527.2730589036022 L 1840 560.1177620590316 L 1860 568.9655716144638 L 1880 534.3783679394309 L 1900 532.6334604348259 L 1920 527.9171392759412 L 1940 544.2071329589982 L 1960 572.0211423623895 L 1980 563.7122179246455 L 2000 562.3050494111504 L 2020 542.5131467099502 L 2040 530.3719657063225 L 2060 488.0882037858971 L 2080 596.716177601401 L 2100 528.6819180041405 " stroke="rgba(192,192,192,0.1034985501463963)" fill="none" stroke-width="2" transform="rotate(-10 960.0 540.0)" /><path d="M 0 672 L 0 555.174180614789 L 20 549.0374662880682 L 40 547.6275726044811 L 60 495.1609958184411 L 80 521.4456014316997 L 100 554.853682385366 L 120 523.6120533050041 L 140 538.2959286788556 L 160 506.12158027587793 L 180 535.4739648934865 L 200 541.9572618707488 L 220 566.4749463012948 L 240 521.9575135635235 L 260 520.7285462196629 L 280 547.6602710064577 L 300 543.0254284479928 L 320 555.5267455563541 L 340 564.6134346348913 L 360 555.4422928480659 L 380 555.5678858306767 L 400 531.8154776765473 L 420 530.6267912249846 L 440 558.2867040080694 L 460 531.8470656909718 L 480 545.3623764854108 L 500 540.3893875159368 L 520 536.0462642132579 L 540 548.0646819081301 L 560 517.3940868051617 L 580 555.0503591010203 L 600 524.2985472704137 L 620 530.4726764761846 L 640 529.6100523501011 L 660 554.9298182986946 L 680 526.8477589511115 L 700 568.5298798398799 L 720 538.5431126272517 L 740 543.290389776454 L 760 527.0429981644459 L 780 504.1858689021689 L 800 562.570813962418 L 820 564.2979482722145 L 840 515.1485752094409 L 860 539.4157268945991 L 880 549.4330657527022 L 900 553.9964759936532 L 920 536.6282613745614 L 940 537.574576363057 L 960 560.1716243576265 L 980 544.1393302780662 L 1000 530.0722326368283 L 1020 526.0690592533518 L 1040 505.40168123516025 L 1060 511.5958299132859 L 1080 570.7295887284602 L 1100 514.4680478067485 L 1120 554.1423196829995 L 1140 524.8281938746267 L 1160 511.885364708371 L 1180 577.7642551440553 L 1200 504.6435840158955 L 1220 559.2206195359415 L 1240 531.2604419330321 L 1260 541.4238102799733 L 1280 526.1423583103804 L 1300 531.97085812763 L 1320 527.525799085547 L 1340 561.3093407643394 L 1360 550.9440406552053 L 1380 558.0050192974699 L 1400 559.4347215000726 L 1420 571.7453854818637 L 1440 572.7795216723903 L 1460 565.6742487461862 L 1480 557.8668593705315 L 1500 521.1814329583154 L 1520 563.2913412123244 L 1540 528.1252682113776 L 1560 570.532918879068 L 1580 505.4199906610569 L 1600 549.054143576823 L 1620 545.4014576135761 L 1640 541.4130822460522 L 1660 533.9976409374244 L 1680 570.3102236331401 L 1700 527.0401580549218 L 1720 562.9362337767333 L 1740 509.87666774957773 L 1760 538.6088036521587 L 1780 571.27368178629 L 1800 504.6742102303249 L 1820 540.4454196213132 L 1840 539.7121959251008 L 1860 568.3813148988048 L 1880 577.905561872984 L 1900 569.4627101001373 L 1920 542.2540193453884 L 1940 505.34843625872674 L 1960 545.0505980400923 L 1980 541.3668380367154 L 2000 536.2502422270479 L 2020 526.8551934373791 L 2040 521.444369508494 L 2060 527.5578706239152 L 2080 523.4818703782154 L 2100 582.963615230407 " stroke="rgba(192,192,192,0.1479426226703348)" fill="none" stroke-width="2" transform="rotate(-10 960.0 540.0)" /><path d="M 0 1030 L 0 527.8642621050603 L 20 524.464268195644 L 40 551.3725077471729 L 60 545.4738019695045 L 80 516.5895538629205 L 100 569.2250038417822 L 120 516.6895013179519 L 140 553.6188024381764 L 160 541.9388298958293 L 180 537.6469432093122 L 200 535.7568669462884 L 220 537.2741682192828 L 240 525.1978954914605 L 260 564.6604258956519 L 280 513.0580583021155 L 300 551.0541019199226 L 320 507.8631831546503 L 340 555.2252335553923 L 360 554.4704467001646 L 380 527.4681442184532 L 400 563.4851068579151 L 420 516.8418103240205 L 440 579.930467526005 L 460 567.1111820070543 L 480 550.076141569501 L 500 567.2463537225491 L 520 563.2158036890478 L 540 521.9323144949178 L 560 551.1722009995166 L 580 572.7072072834352 L 600 555.7813035648794 L 620 555.2801925103684 L 640 558.7695596125886 L 660 537.777225961248 L 680 512.5940795289056 L 700 555.4599220293064 L 720 554.7280181520865 L 740 560.1371884264804 L 760 580.456400981313 L 780 510.2829452550492 L 800 564.1338391763977 L 820 556.3216585282951 L 840 557.7303355813303 L 860 549.1362309561671 L 880 518.8018774996275 L 900 562.7918508263438 L 920 537.1846183730244 L 940 517.4351499302902 L 960 526.9563739310705 L 980 562.8612070185909 L 1000 573.2521234593065 L 1020 505.971766373081 L 1040 530.1928261793571 L 1060 550.6230736085348 L 1080 571.2744159614165 L 1100 522.8648890136807 L 1120 542.2192732343996 L 1140 532.1335776735756 L 1160 533.4807612983689 L 1180 560.8438022571347 L 1200 554.8992700501939 L 1220 512.9062038434112 L 1240 544.410324721244 L 1260 552.479497190039 L 1280 549.3256629449135 L 1300 515.5116435718031 L 1320 502.6327187744595 L 1340 518.5501196505567 L 1360 508.35739766215016 L 1380 552.5995105638589 L 1400 559.0916093752438 L 1420 527.747141690102 L 1440 535.6750461586034 L 1460 556.8398825301477 L 1480 537.0819125155768 L 1500 558.4692762668217 L 1520 528.7573751700866 L 1540 549.1537562467033 L 1560 541.974564026468 L 1580 575.3341257079298 L 1600 531.5000197561221 L 1620 559.7463525099122 L 1640 561.8246347168458 L 1660 510.76023976253936 L 1680 536.2175607616192 L 1700 550.2963689916052 L 1720 558.4514976556677 L 1740 554.3123854058181 L 1760 532.9215439697573 L 1780 579.0277830375396 L 1800 510.2756172018794 L 1820 576.0549540670481 L 1840 559.8270589827051 L 1860 529.5740096089103 L 1880 518.8355080712989 L 1900 551.1844468928764 L 1920 559.7944382973366 L 1940 537.2447399593625 L 1960 549.8703663019941 L 1980 567.9512043437592 L 2000 566.6299507793005 L 2020 514.9788442422434 L 2040 541.8457011767006 L 2060 521.6697644281305 L 2080 548.2768609839362 L 2100 563.330749005112 " stroke="rgba(192,192,192,0.14597211367862822)" fill="none" stroke-width="2" transform="rotate(-10 960.0 540.0)" /><path d="M 0 922 L 0 551.9759303416593 L 20 505.4288712821371 L 40 507.6510385721817 L 60 471.9696618914362 L 80 592.2582830163248 L 100 564.2619025730901 L 120 619.2250082978411 L 140 559.3920930677766 L 160 565.4307905751828 L 180 566.5354362117364 L 200 509.89536752769607 L 220 514.6445082381856 L 240 475.8456626790533 L 260 525.7741013351393 L 280 552.7499259471987 L 300 520.3390936796275 L 320 627.6887252883648 L 340 487.54292291807354 L 360 489.78645478498584 L 380 510.6342959563319 L 400 577.1055643716107 L 420 489.8633622346439 L 440 601.4540266541235 L 460 590.8318202957269 L 480 481.4997396018455 L 500 536.701504871679 L 520 540.9170432037332 L 540 546.1548788251029 L 560 570.3486709860689 L 580 512.0644111284429 L 600 529.1990535237335 L 620 509.82350234803886 L 640 563.4802731853368 L 660 555.8942261516215 L 680 553.0404849828119 L 700 539.0977647833316 L 720 573.7302712921955 L 740 578.1373982804927 L 760 552.6514125231992 L 780 508.50215487521064 L 800 518.2129606143183 L 820 497.9506063252483 L 840 526.4373039931037 L 860 536.0884433982798 L 880 558.2036048263934 L 900 601.4053394213214 L 920 560.0691915893866 L 940 524.9426084051812 L 960 506.15058082394205 L 980 475.10283630478904 L 1000 473.60943577519765 L 1020 521.759936033897 L 1040 563.731445457752 L 1060 558.5410359830034 L 1080 528.7436976626375 L 1100 542.7705467884357 L 1120 536.8441558337446 L 1140 604.0943499756492 L 1160 577.0556025652263 L 1180 574.2615724297177 L 1200 497.6146480973213 L 1220 554.7000465024261 L 1240 570.4297139199027 L 1260 519.8240235969012 L 1280 533.8169092322428 L 1300 457.53413677577754 L 1320 534.1084133025204 L 1340 500.0749679576365 L 1360 524.6888978313292 L 1380 512.531889234532 L 1400 526.9817808979841 L 1420 563.8614263020171 L 1440 564.2137397209574 L 1460 538.1776022519213 L 1480 510.61542623107295 L 1500 542.9998569804385 L 1520 474.82866646649865 L 1540 512.9139427043602 L 1560 473.25632497296624 L 1580 584.5940472673685 L 1600 536.9776769609148 L 1620 488.87626607693204 L 1640 585.0744390314788 L 1660 515.9179722271059 L 1680 504.06494993998353 L 1700 506.29584688126124 L 1720 483.7694409661257 L 1740 501.5718718877547 L 1760 475.9784865381047 L 1780 603.67721886201 L 1800 501.21133509565766 L 1820 577.9716403764062 L 1840 583.9601865116191 L 1860 564.9760852501929 L 1880 586.6573536787739 L 1900 533.8560311138212 L 1920 536.0078629635123 L 1940 455.85966561257544 L 1960 543.9014655250098 L 1980 488.4929464683178 L 2000 529.1067017759036 L 2020 592.885434255437 L 2040 533.4300408511673 L 2060 546.4091536297659 L 2080 531.8260364808342 L 2100 572.7662290151204 " stroke="rgba(192,192,192,0.07881837904471085)" fill="none" stroke-width="2" transform="rotate(-10 960.0 540.0)" /><path d="M 0 499 L 0 527.1176755226978 L 20 561.5156691595552 L 40 532.1624288964719 L 60 518.231792557541 L 80 512.1565771372508 L 100 524.7396298795311 L 120 524.9085083277604 L 140 565.673712929158 L 160 520.8398051331037 L 180 568.2562686583123 L 200 555.2339643556037 L 220 519.7226336592523 L 240 548.2464434459561 L 260 521.3773534330518 L 280 518.6727513739451 L 300 536.6959473506296 L 320 538.6355462970857 L 340 533.3466289344623 L 360 553.4798546050345 L 380 517.0801608306773 L 400 553.2570764093482 L 420 559.1002872740495 L 440 536.937000489456 L 460 547.6349910332568 L 480 545.8064213963261 L 500 566.8572994396702 L 520 568.7870381290322 L 540 576.3970004989754 L 560 551.5283982933232 L 580 507.75034669588405 L 600 557.1056627655134 L 620 493.01004695472466 L 640 537.3155362570624 L 660 544.4395040188464 L 680 534.1598542503045 L 700 510.0579505043089 L 720 567.6627256288724 L 740 533.7416192499207 L 760 521.726737188254 L 780 525.515759146897 L 800 558.8935445346292 L 820 569.253032206231 L 840 566.7380554133125 L 860 548.6849509403785 L 880 548.176703688467 L 900 533.8403923352404 L 920 510.53033928836663 L 940 521.6700009860999 L 960 532.8757368155123 L 980 566.1806755965863 L 1000 530.5572039888195 L 1020 535.0770864107308 L 1040 550.4467241919226 L 1060 549.1280166625412 L 1080 571.9535872029876 L 1100 545.1573371371535 L 1120 527.6253979431694 L 1140 553.1605927110179 L 1160 537.0695224071189 L 1180 500.23343140658204 L 1200 571.9651341666747 L 1220 559.3041562135887 L 1240 547.4289363423369 L 1260 546.0578628204269 L 1280 542.6841363836658 L 1300 573.9753319918059 L 1320 516.5861199720589 L 1340 499.6842924167543 L 1360 567.5860151961501 L 1380 519.3063569173524 L 1400 518.593588943552 L 1420 572.0061771355937 L 1440 565.8216508822212 L 1460 523.6377936922345 L 1480 547.9714824146921 L 1500 518.8274244995107 L 1520 506.9165323593252 L 1540 524.2397188921898 L 1560 508.7544636324513 L 1580 537.7305442980527 L 1600 530.7900375320369 L 1620 512.6148541471204 L 1640 508.90189088752584 L 1660 520.4150429623244 L 1680 573.8527207642474 L 1700 506.6366342555695 L 1720 539.820558963693 L 1740 522.9120432121126 L 1760 496.8777434968348 L 1780 500.6756411394995 L 1800 576.156386812448 L 1820 537.5363146723103 L 1840 541.4144360901818 L 1860 548.1357709053399 L 1880 560.2864333894216 L 1900 531.4654906099069 L 1920 526.788320782565 L 1940 507.8285113950687 L 1960 523.4056309138799 L 1980 557.0973446321029 L 2000 519.0857403245444 L 2020 585.8770452934674 L 2040 545.9569979135049 L 2060 535.8533111356375 L 2080 529.904305690237 L 2100 557.7858408300704 " stroke="rgba(192,192,192,0.16176038770033324)" fill="none" stroke-width="2" transform="rotate(-10 960.0 540.0)" /><path d="M 0 825 L 0 543.1698478288805 L 20 557.9510003050297 L 40 543.2139947290603 L 60 562.6060602071108 L 80 575.1600475129982 L 100 540.7180412595173 L 120 538.0691921979897 L 140 544.410125652946 L 160 536.0465756194596 L 180 575.2656076938376 L 200 546.954051578771 L 220 530.6601769008048 L 240 550.6563798520436 L 260 496.4896279636527 L 280 538.3476909265326 L 300 515.9815689373589 L 320 500.81914391194056 L 340 532.3056769319951 L 360 521.2717904853702 L 380 522.7363532422818 L 400 510.1879461751441 L 420 572.154030959116 L 440 528.6331364112261 L 460 537.8228442453127 L 480 522.0113062622769 L 500 549.0660818257625 L 520 526.712067154236 L 540 506.5032853965652 L 560 514.3175320707348 L 580 506.2106965638758 L 600 543.5548176847699 L 620 570.8399690927231 L 640 562.1014472823553 L 660 529.5649067286345 L 680 517.3582048926606 L 700 548.35308827486 L 720 546.0267629076554 L 740 546.6841670676647 L 760 495.32100460929644 L 780 502.1682887372956 L 800 497.68398996845383 L 820 545.6296253111935 L 840 511.23592207286583 L 860 535.5239580301355 L 880 546.3892853691915 L 900 549.8869930608619 L 920 531.4009840002994 L 940 533.6148413618889 L 960 534.8472076796038 L 980 547.8474069324674 L 1000 537.2255751395654 L 1020 519.9979173988403 L 1040 524.3078414841709 L 1060 520.9779311826815 L 1080 553.2368141807478 L 1100 528.3934272471782 L 1120 542.4927553910826 L 1140 533.0840103346352 L 1160 525.4936871384426 L 1180 553.6624815609567 L 1200 535.3677052141417 L 1220 514.600354392278 L 1240 558.4183458193701 L 1260 579.7906310007573 L 1280 561.8883132281296 L 1300 550.9264982660635 L 1320 534.1253408762484 L 1340 543.466348878286 L 1360 528.8622439816053 L 1380 539.0250483028025 L 1400 542.1725442683316 L 1420 548.6724613306307 L 1440 508.9298130453078 L 1460 546.3798388588009 L 1480 559.3094588070504 L 1500 537.9149071149731 L 1520 530.952726279325 L 1540 531.5921109170628 L 1560 503.64852763521895 L 1580 562.3039575511124 L 1600 552.3939465131918 L 1620 557.6007242598467 L 1640 540.5092957661016 L 1660 560.8018808549053 L 1680 551.0592701812172 L 1700 527.5475794230863 L 1720 527.7190513772472 L 1740 550.5820912808666 L 1760 513.7723130091174 L 1780 522.3481872416465 L 1800 551.7465372754116 L 1820 525.3024179571775 L 1840 561.4764498448374 L 1860 537.8648173635963 L 1880 534.5073262614687 L 1900 538.6675732919518 L 1920 526.3989858246376 L 1940 564.5962028211796 L 1960 540.3295675415732 L 1980 542.9865855083095 L 2000 515.2373185187619 L 2020 511.09943489858614 L 2040 511.3004099101965 L 2060 549.8928424326136 L 2080 575.9795458196114 L 2100 533.7301295975577 " stroke="rgba(192,192,192,0.13077813963925272)" fill="none" stroke-width="2" transform="rotate(-10 960.0 540.0)" /><path d="M 0 754 L 0 557.1505668643279 L 20 532.2988947220357 L 40 553.2812589323119 L 60 562.5044281546644 L 80 532.0488014740386 L 100 542.7970787825735 L 120 541.3652344364988 L 140 562.403601875615 L 160 557.7720915642404 L 180 552.214606800521 L 200 561.2568418547784 L 220 536.8844451230686 L 240 544.6050297411167 L 260 539.6096364496817 L 280 536.4112144250875 L 300 549.6757165003653 L 320 538.5232479312738 L 340 552.8440564790017 L 360 554.1831074651998 L 380 540.8600045544595 L 400 535.148000429407 L 420 551.4462057533228 L 440 511.8577798671949 L 460 541.3932630967826 L 480 526.7673643261527 L 500 537.3946981075712 L 520 523.646323715735 L 540 547.5278857067099 L 560 553.2183805919777 L 580 555.2019806160909 L 600 522.8080185904353 L 620 564.0807349592828 L 640 522.4411040462219 L 660 529.6274174470332 L 680 549.5065444018713 L 700 558.1032918783803 L 720 562.643095065111 L 740 533.9091129686606 L 760 553.5439638342084 L 780 537.1389496508526 L 800 520.0789999449364 L 820 519.5688443405212 L 840 554.5312931529988 L 860 526.5376207045995 L 880 538.2151374586945 L 900 525.8490333972487 L 920 545.4668521139993 L 940 548.9310814844578 L 960 551.6263978278413 L 980 545.9770610693048 L 1000 564.6216600210454 L 1020 553.3969510517142 L 1040 528.8291124346769 L 1060 530.8878102692877 L 1080 558.994421170883 L 1100 540.7567048326965 L 1120 522.2399253216579 L 1140 545.1636091307786 L 1160 538.9856281456745 L 1180 559.0427866480239 L 1200 531.5129989971621 L 1220 537.9269818263703 L 1240 549.246170271262 L 1260 551.0769522732286 L 1280 521.3304863509118 L 1300 547.7133338563175 L 1320 536.8653809573324 L 1340 544.3909028759155 L 1360 549.2039394536135 L 1380 551.5536381165375 L 1400 534.1958370098783 L 1420 509.97027338047525 L 1440 543.0358450528242 L 1460 548.9634048084257 L 1480 520.2492804103476 L 1500 554.3782457570138 L 1520 551.0275369402875 L 1540 534.8105848895431 L 1560 533.8242142794418 L 1580 525.9094398793815 L 1600 531.9521035339077 L 1620 538.3845666920082 L 1640 553.9041027397427 L 1660 527.7138273374751 L 1680 536.2515355050373 L 1700 532.7645620485813 L 1720 544.3536512217987 L 1740 548.4605439913857 L 1760 533.8821401570677 L 1780 525.908713618408 L 1800 524.7461186055742 L 1820 528.3728955027191 L 1840 539.313790848934 L 1860 532.9176638794146 L 1880 533.0097914968699 L 1900 561.5898944504596 L 1920 520.0341085802825 L 1940 574.3451027268519 L 1960 553.370072481239 L 1980 541.0031747576415 L 2000 546.0450509765257 L 2020 537.9461207482018 L 2040 526.5618202510877 L 2060 543.6395850752048 L 2080 534.3442458232371 L 2100 533.9715835952528 " stroke="rgba(192,192,192,0.06842927461254804)" fill="none" stroke-width="2" transform="rotate(-10 960.0 540.0)" /><path d="M 0 1003 L 0 575.2216874664011 L 20 515.2768319242061 L 40 560.5260876173713 L 60 586.3466636195966 L 80 607.1806047825751 L 100 602.6274889031746 L 120 532.7747601904708 L 140 554.8292864418169 L 160 530.4900611825067 L 180 566.1845776449643 L 200 527.775193970802 L 220 573.9797106854862 L 240 583.6609891278792 L 260 528.1072479177597 L 280 573.3549003369186 L 300 554.9083083072576 L 320 522.933350426016 L 340 535.9692381828932 L 360 515.5303131386272 L 380 464.6183199470662 L 400 492.2076425177456 L 420 493.8040647978576 L 440 520.1088539005914 L 460 506.71284814231336 L 480 558.0524293145673 L 500 533.8107077197577 L 520 530.5348698070168 L 540 556.0072970392573 L 560 568.2618852558389 L 580 527.6896564595918 L 600 559.1433536991137 L 620 505.243957375886 L 640 516.2521107192455 L 660 572.6854669745275 L 680 526.4680030390367 L 700 502.3562642753699 L 720 528.4431674145621 L 740 590.4712334434827 L 760 533.5278258678483 L 780 542.3539068723929 L 800 549.6148572553639 L 820 497.7084888878916 L 840 547.9110545123227 L 860 534.5629447239311 L 880 516.272591519839 L 900 557.9123640864046 L 920 488.7087799029653 L 940 518.1517231984011 L 960 500.94429218731085 L 980 544.8391458298973 L 1000 475.08568354433356 L 1020 603.982132295416 L 1040 503.06494720895444 L 1060 528.4438042610516 L 1080 505.5863975566176 L 1100 522.9585907396174 L 1120 513.077344928586 L 1140 515.9092724140166 L 1160 587.3171028018975 L 1180 568.4351868417235 L 1200 557.0261154288464 L 1220 491.75600087315064 L 1240 512.8945705137522 L 1260 525.163503776166 L 1280 577.4771526918274 L 1300 539.5499178051144 L 1320 574.8664916841356 L 1340 503.3138114236529 L 1360 526.0396834764922 L 1380 547.6784020643112 L 1400 565.4093408104834 L 1420 553.4864412128591 L 1440 604.2333861577489 L 1460 497.6849377759587 L 1480 572.2152918401716 L 1500 506.66961670521675 L 1520 515.9929440376035 L 1540 530.5585162500416 L 1560 586.5104052516956 L 1580 523.2937422999412 L 1600 559.6781426666016 L 1620 540.9120732543812 L 1640 553.9876259712623 L 1660 563.4326414692728 L 1680 512.7453007803869 L 1700 554.2568652323065 L 1720 500.0689292489728 L 1740 510.83174660616936 L 1760 592.0736935524367 L 1780 499.50948738547777 L 1800 503.02583707955563 L 1820 531.5171018384275 L 1840 506.2990113308203 L 1860 585.9312189220708 L 1880 557.6026773982891 L 1900 598.1165759552416 L 1920 508.6183378542266 L 1940 555.4210879959742 L 1960 524.6415753768404 L 1980 595.7829152139507 L 2000 496.9871827580247 L 2020 490.5263096263271 L 2040 503.4972889434196 L 2060 550.0275827927028 L 2080 536.2058818526378 L 2100 502.86626795936144 " stroke="rgba(192,192,192,0.07852771200456202)" fill="none" stroke-width="2" transform="rotate(-10 960.0 540.0)" /><path d="M 0 789 L 0 543.0451248229309 L 20 551.8562445832179 L 40 513.0228335213998 L 60 503.76159488489355 L 80 530.4330673498574 L 100 528.6977251933447 L 120 496.86937129650875 L 140 490.27709061331433 L 160 567.102564572169 L 180 537.3566392150346 L 200 572.2947967682059 L 220 543.5670597332835 L 240 536.9624676341033 L 260 553.8278389375869 L 280 503.069925983996 L 300 564.9586365811776 L 320 533.1351643566486 L 340 554.6431870727772 L 360 567.1881392656371 L 380 522.7439308586553 L 400 525.7076530783585 L 420 528.4371330933403 L 440 516.2522189795753 L 460 543.4088274305605 L 480 570.5797567615292 L 500 537.0833457773913 L 520 519.9354864231366 L 540 510.3892260417734 L 560 590.2383280435515 L 580 565.4993620715611 L 600 517.0253918873119 L 620 585.7870324421841 L 640 514.9132207895402 L 660 519.2982156600129 L 680 523.7550646542566 L 700 545.916437191641 L 720 567.5854026415119 L 740 529.5805598211837 L 760 557.257113001531 L 780 530.0772988992811 L 800 511.72583120323566 L 820 574.1069717914584 L 840 562.5760017328031 L 860 514.7334810747734 L 880 495.7955071835347 L 900 505.62148779388906 L 920 584.2519139717432 L 940 518.0351140196827 L 960 505.9223884845838 L 980 557.578180825852 L 1000 544.7269857896167 L 1020 531.6718264804899 L 1040 587.68581940274 L 1060 529.0920464038915 L 1080 569.9646777519154 L 1100 571.1931833798161 L 1120 501.5082449050054 L 1140 503.0819648289378 L 1160 548.2158741909502 L 1180 535.5041802959978 L 1200 513.6622385419173 L 1220 568.5710471131656 L 1240 510.2682641967609 L 1260 552.713121878573 L 1280 532.0787757779935 L 1300 562.3007366898395 L 1320 576.5237442086193 L 1340 546.7492449118536 L 1360 514.4210614165285 L 1380 603.5634897300225 L 1400 523.6192809809236 L 1420 573.6975739388168 L 1440 508.07436065786567 L 1460 591.6809300298128 L 1480 529.6056982349493 L 1500 563.7203323350172 L 1520 543.674549785325 L 1540 522.1202742916042 L 1560 557.3977023380363 L 1580 500.42001086616864 L 1600 582.7744773190328 L 1620 508.68810997291325 L 1640 546.8318750785994 L 1660 542.3414123801747 L 1680 508.8553963959667 L 1700 521.5392034484491 L 1720 538.4810169617463 L 1740 524.7371486885827 L 1760 564.1770542413047 L 1780 536.0619917160645 L 1800 530.1385855646947 L 1820 496.03530431260333 L 1840 523.0212824917993 L 1860 537.8560340242324 L 1880 528.5410817676317 L 1900 499.26651386122967 L 1920 570.13353708118 L 1940 501.7177106699483 L 1960 515.7016350634559 L 1980 499.41146915439083 L 2000 520.0557192695127 L 2020 524.1838709583625 L 2040 521.2906461741557 L 2060 544.6329706996179 L 2080 569.6119562792875 L 2100 557.4980545740351 " stroke="rgba(192,192,192,0.19758794366110116)" fill="none" stroke-width="2" transform="rotate(-10 960.0 540.0)" /><path d="M 0 779 L 0 552.6338462099212 L 20 548.1269700163264 L 40 548.859141135481 L 60 539.2120993441292 L 80 522.9234783370534 L 100 512.7792504536505 L 120 516.6913266341612 L 140 528.4215910920398 L 160 559.4765530993561 L 180 527.6738425905053 L 200 548.4633282736975 L 220 513.4439899546416 L 240 541.409322964783 L 260 524.6637561411465 L 280 553.4681589901099 L 300 522.8939018044252 L 320 544.5558390130109 L 340 558.0030510172692 L 360 558.0420889328835 L 380 536.0355901637963 L 400 510.9756765830942 L 420 511.67788490291315 L 440 561.282193572449 L 460 524.3969581057252 L 480 527.1438501489575 L 500 545.3222725813897 L 520 556.360046481587 L 540 545.4678224814554 L 560 540.1123325100953 L 580 541.7309956882086 L 600 563.0936188342246 L 620 523.3726958937024 L 640 559.5662409797817 L 660 554.5969958882981 L 680 570.5580450004704 L 700 529.6057970784934 L 720 543.5300708401276 L 740 532.8256237608608 L 760 532.582500033236 L 780 572.6722422616106 L 800 533.7680930165645 L 820 549.667798933649 L 840 522.3893698730822 L 860 522.5056006188986 L 880 563.9347512711415 L 900 528.7644072315212 L 920 548.7788371255539 L 940 569.7265263039968 L 960 527.3332253536141 L 980 535.9925739063556 L 1000 555.4120381464982 L 1020 536.7123743240662 L 1040 554.2539859531432 L 1060 563.684306470687 L 1080 529.8030303838646 L 1100 536.6902337843939 L 1120 537.8969003731148 L 1140 542.5271781780075 L 1160 550.2721048670613 L 1180 545.1451037143054 L 1200 550.9594670839725 L 1220 557.226701115048 L 1240 546.5711785740998 L 1260 552.2568354571878 L 1280 548.9756185837241 L 1300 563.5598467293787 L 1320 564.9868929100356 L 1340 546.8195580911437 L 1360 515.1275758788294 L 1380 514.6342202883326 L 1400 544.1753174744243 L 1420 520.6409927522432 L 1440 558.9192013796145 L 1460 549.9677465285218 L 1480 531.5244825325861 L 1500 528.6291634482199 L 1520 526.8281441235757 L 1540 528.958472385514 L 1560 525.1907522089205 L 1580 552.0727781215456 L 1600 551.4601363848844 L 1620 515.1426047125165 L 1640 546.8271372794485 L 1660 541.5536642805977 L 1680 560.5740562700976 L 1700 523.7446237500328 L 1720 531.6688589166226 L 1740 567.3250801469342 L 1760 525.480466210623 L 1780 543.5928703067154 L 1800 546.9451296505629 L 1820 534.0888156518428 L 1840 548.5959451346987 L 1860 544.8967734469196 L 1880 549.8318134409526 L 1900 534.1229451843252 L 1920 524.3729408063192 L 1940 561.695487035846 L 1960 562.3333066738688 L 1980 516.2414915578144 L 2000 545.6897569495025 L 2020 514.9212623331946 L 2040 554.9954093439982 L 2060 514.3237935460731 L 2080 567.8335445428239 L 2100 528.1628775674762 " stroke="rgba(192,192,192,0.12466838102978664)" fill="none" stroke-width="2" transform="rotate(-10 960.0 540.0)" />
</svg>